<?xml version="1.0" standalone="no"?>
<!DOCTYPE svg PUBLIC "-//W3C//DTD SVG 20010904//EN"
 "http://www.w3.org/TR/2001/REC-SVG-20010904/DTD/svg10.dtd">
<svg version="1.0" xmlns="http://www.w3.org/2000/svg"
 width="1280.000000pt" height="900.000000pt" viewBox="0 0 1280.000000 900.000000"
 preserveAspectRatio="xMidYMid meet">
<metadata>
Created by potrace 1.15, written by Peter Selinger 2001-2017
</metadata>
<g transform="translate(0.000000,900.000000) scale(0.100000,-0.100000)"
fill="#000000" stroke="none">
<path d="M4172 8980 c-18 -11 -37 -31 -43 -44 -16 -34 -3 -88 26 -116 38 -35
48 -81 40 -174 -20 -238 -89 -385 -277 -592 -46 -51 -120 -133 -165 -183 -46
-50 -83 -96 -83 -101 0 -14 48 -34 131 -56 35 -10 68 -21 72 -25 12 -10 -39
-196 -66 -241 -12 -20 -86 -103 -165 -183 -137 -139 -163 -176 -106 -155 37
15 37 15 30 -50 l-7 -60 40 6 c41 6 41 6 41 -25 0 -17 -12 -50 -26 -72 -14
-23 -40 -76 -58 -118 -40 -94 -66 -133 -189 -281 -99 -118 -125 -156 -115
-166 4 -3 39 -6 79 -7 l73 -2 10 -33 c12 -43 44 -51 89 -23 51 31 147 23 147
-13 0 -22 -47 -55 -89 -62 -74 -13 -212 -119 -245 -189 -31 -65 13 -76 70 -19
42 41 53 37 69 -29 14 -53 47 -62 85 -22 26 27 68 33 117 14 l28 -10 -52 -45
c-47 -41 -51 -48 -46 -78 5 -31 3 -35 -29 -45 -19 -6 -46 -23 -58 -36 -14 -14
-34 -25 -49 -25 l-26 1 28 20 c29 22 36 49 13 49 -7 0 -19 -7 -26 -15 -7 -8
-17 -15 -22 -15 -5 0 7 21 27 46 60 80 50 82 -68 14 -48 -27 -90 -50 -94 -50
-4 0 11 19 34 43 63 65 82 113 34 87 -55 -29 -319 -265 -309 -275 2 -3 90 -1
195 3 l191 7 94 47 c89 44 105 57 234 191 76 79 148 161 159 183 11 21 28 51
38 67 24 36 19 71 -11 75 -32 5 -37 25 -18 72 19 49 20 50 2 50 -8 0 -44 -33
-81 -74 -36 -41 -78 -78 -93 -83 -34 -12 -78 -1 -74 18 7 29 93 158 133 197
57 57 76 62 106 23 13 -17 31 -31 40 -31 8 0 32 18 53 39 22 22 53 42 69 46
64 14 151 153 151 240 0 25 5 35 15 35 16 0 64 -70 108 -155 30 -59 93 -135
112 -135 7 0 36 -26 64 -57 l50 -58 29 17 c29 17 30 17 67 -12 21 -17 50 -30
65 -30 56 0 180 -112 180 -162 0 -25 -12 -23 -40 7 -14 15 -35 25 -52 25 -19
0 -37 10 -55 31 l-28 31 -11 -54 -10 -53 -27 51 c-33 64 -76 116 -89 108 -6
-4 -8 -25 -4 -50 10 -77 -18 -69 -87 26 -51 70 -108 130 -123 130 -7 0 -26
-37 -42 -82 -17 -46 -33 -76 -35 -68 -3 8 -15 56 -28 105 -12 50 -27 101 -33
114 l-11 25 -6 -30 c-4 -16 -7 -56 -8 -89 -1 -67 -17 -135 -31 -135 -11 0 -30
65 -30 103 0 44 -17 67 -50 67 -37 0 -60 -32 -60 -82 0 -47 13 -55 48 -28 23
19 27 20 30 6 5 -24 -35 -74 -77 -96 -49 -24 -68 -55 -77 -121 -8 -60 -12 -65
-176 -212 -79 -70 -86 -80 -75 -98 15 -25 8 -31 -225 -186 -98 -65 -178 -123
-178 -129 0 -5 6 -18 13 -28 13 -18 21 -15 138 47 68 35 135 68 149 71 25 7
24 7 -4 -18 -40 -34 -336 -194 -482 -261 -128 -59 -141 -73 -110 -120 l16 -24
72 33 c40 19 113 52 161 75 49 22 87 35 84 28 -2 -6 -55 -39 -118 -72 -63 -34
-123 -66 -134 -72 -25 -15 -296 -126 -347 -142 l-38 -12 20 -40 c11 -21 22
-39 25 -39 2 0 28 9 57 21 299 119 254 84 -154 -118 -175 -87 -318 -163 -318
-170 0 -20 23 -63 33 -63 6 0 57 25 114 56 58 30 110 53 116 51 19 -6 -70 -64
-260 -169 -148 -83 -320 -183 -331 -193 -5 -5 27 -63 38 -70 6 -3 22 2 38 13
38 26 192 108 220 117 40 12 23 -9 -31 -39 -146 -80 -487 -292 -487 -303 0 -7
9 -38 21 -69 l21 -56 267 4 267 3 40 43 c28 29 49 42 67 42 15 0 27 -4 27 -10
0 -5 -7 -10 -15 -10 -21 0 -73 -75 -81 -115 -8 -43 12 -84 53 -110 42 -26 46
-74 8 -99 -30 -20 -65 -93 -65 -137 0 -23 10 -41 40 -71 48 -48 50 -67 10 -96
-33 -25 -54 -86 -44 -129 7 -32 51 -83 71 -83 23 0 16 -58 -9 -71 -51 -26 -68
-51 -68 -99 0 -52 27 -92 75 -110 22 -9 24 -13 15 -31 -7 -11 -9 -27 -6 -35 3
-9 -12 -31 -39 -58 -51 -49 -59 -88 -26 -142 17 -28 73 -64 100 -64 7 0 5 -10
-5 -25 -9 -14 -14 -32 -10 -40 3 -10 -5 -20 -24 -30 -43 -22 -73 -71 -73 -119
0 -55 25 -91 77 -112 41 -17 43 -20 35 -46 -4 -15 -5 -28 -1 -28 4 0 -11 -10
-32 -23 -56 -32 -81 -70 -81 -122 0 -54 25 -91 86 -125 39 -22 44 -29 41 -56
-3 -26 -11 -34 -55 -55 -44 -20 -54 -30 -65 -63 -23 -72 15 -132 99 -158 22
-6 39 -16 39 -23 0 -6 13 -24 30 -40 36 -35 125 -47 162 -23 25 17 6 20 348
-55 91 -20 215 -46 275 -57 138 -27 246 -56 660 -182 182 -54 393 -115 470
-133 77 -19 208 -55 290 -80 83 -26 254 -73 380 -104 259 -65 330 -94 375
-151 34 -43 78 -61 194 -81 86 -15 165 -7 297 27 99 25 115 27 339 26 266 -1
337 -9 442 -53 40 -17 100 -42 133 -56 33 -14 101 -32 150 -40 50 -8 122 -23
160 -34 106 -30 244 -49 406 -56 172 -7 157 -20 152 132 -4 92 -2 103 19 135
l23 35 5 -90 c4 -78 9 -97 37 -145 30 -51 37 -57 98 -78 l65 -24 0 -154 0
-154 -32 14 c-18 8 -54 23 -79 35 l-47 21 -7 145 c-5 103 -11 148 -21 156 -12
10 -14 -15 -14 -158 l0 -168 96 -48 96 -48 76 22 c130 36 122 26 123 148 1 58
4 230 8 381 l6 274 78 19 77 19 0 45 c0 38 -3 44 -17 39 -79 -25 -254 -66
-280 -66 -17 0 -116 15 -220 34 -103 19 -264 46 -356 61 -93 14 -273 45 -400
70 -189 36 -1037 165 -1085 165 -9 0 -11 -7 -6 -22 3 -13 7 -24 9 -26 1 -1 87
-15 191 -31 104 -16 347 -57 539 -90 347 -60 1205 -201 1228 -201 4 0 7 -22 6
-50 -2 -27 -5 -50 -8 -50 -16 0 -227 39 -631 116 -529 101 -862 159 -1346 236
l-72 11 -6 45 c-12 91 -10 100 32 111 54 14 343 77 443 97 107 20 114 24 105
60 -20 78 -156 145 -224 110 -40 -21 -76 -66 -97 -121 -10 -25 -19 -45 -21
-45 -18 0 -168 24 -196 31 -60 16 -51 43 25 77 34 16 85 46 112 68 l50 39 103
-3 102 -2 0 44 c0 41 3 46 50 80 63 46 83 76 88 139 3 43 0 57 -19 81 -49 63
-172 87 -230 45 -17 -12 -44 -45 -61 -75 -28 -51 -32 -54 -62 -50 -17 3 -58 8
-91 11 -33 3 -75 9 -93 12 -32 5 -33 6 -15 25 10 11 64 54 120 94 l102 75 105
-14 c59 -7 108 -11 111 -9 3 3 5 24 5 46 0 37 4 43 37 61 100 54 137 209 66
279 -59 59 -169 54 -243 -12 -35 -31 -43 -45 -47 -85 l-6 -48 -106 7 c-131 8
-181 16 -184 29 -1 5 20 21 47 36 51 26 139 117 129 132 -5 8 -111 2 -159 -9
-16 -4 -23 2 -36 34 -15 38 -62 81 -75 69 -3 -3 6 -20 21 -37 49 -58 27 -154
-43 -189 -105 -54 -261 14 -261 115 0 19 -4 34 -8 34 -37 0 -44 -105 -11 -159
11 -18 19 -35 17 -36 -5 -6 -588 44 -998 85 -217 21 -435 42 -485 45 -49 4
-216 17 -370 31 -154 13 -343 28 -420 34 -77 6 -203 17 -280 25 -77 8 -167 18
-199 21 l-59 6 32 25 c38 30 61 72 61 113 0 17 5 30 13 30 6 0 86 -7 177 -15
237 -21 517 -40 1165 -80 314 -20 689 -47 835 -61 146 -13 326 -27 400 -30
l135 -6 17 30 c29 54 66 65 229 70 181 5 206 -1 276 -76 l51 -55 136 -3 c114
-3 136 -1 136 12 0 8 18 21 40 30 65 26 90 64 90 136 0 50 -5 67 -25 94 -32
41 -100 68 -158 62 -55 -6 -120 -48 -137 -87 -12 -30 -13 -30 -69 -26 -31 3
-91 7 -134 11 l-78 6 68 48 c37 27 82 60 98 73 l30 25 -34 9 c-20 5 -68 5
-114 0 -73 -8 -81 -8 -90 9 -19 34 -78 84 -100 84 -19 0 -16 -5 20 -38 23 -21
45 -51 49 -66 11 -45 -3 -98 -34 -129 -88 -87 -272 -20 -272 100 l0 27 -22
-22 c-29 -29 -27 -79 5 -137 l26 -45 -43 0 c-61 0 -419 25 -846 60 -331 27
-514 39 -1065 70 -197 11 -828 60 -833 65 -2 1 8 19 22 39 13 20 28 50 31 67
4 17 13 33 21 36 7 2 136 -2 286 -11 150 -9 399 -18 553 -21 154 -3 339 -10
410 -15 250 -19 512 -30 981 -41 l472 -11 32 36 c43 49 88 59 240 54 127 -4
195 -22 240 -63 39 -35 134 -62 238 -68 l102 -5 0 39 c0 34 4 41 28 49 79 29
112 74 112 155 0 107 -71 170 -183 162 -51 -3 -62 -8 -94 -39 -31 -31 -37 -45
-41 -93 l-5 -56 -141 7 c-77 3 -143 8 -145 10 -9 8 24 34 77 61 31 15 78 49
103 75 35 37 55 49 88 54 36 6 41 9 28 21 -11 12 -40 12 -172 4 l-159 -10 -38
34 c-21 19 -47 35 -58 35 -18 0 -18 -2 5 -36 62 -92 -8 -234 -115 -234 -70 0
-140 75 -140 149 0 28 -2 31 -20 21 -34 -18 -44 -48 -31 -92 7 -21 21 -44 31
-51 11 -6 20 -15 20 -18 0 -4 -48 -7 -107 -8 -101 -2 -110 -4 -135 -28 -14
-14 -24 -31 -22 -38 3 -8 -12 -15 -45 -22 l-49 -10 -4 29 c-6 35 -3 38 42 38
55 0 60 11 60 131 l0 107 133 1 c94 1 133 5 136 14 2 7 21 29 41 49 36 36 41
38 111 40 132 4 222 -3 341 -28 126 -27 177 -44 198 -68 9 -12 31 -16 81 -16
l69 0 0 39 c0 33 4 40 25 45 13 3 37 22 52 42 22 30 27 47 28 94 0 47 -5 63
-27 93 -35 45 -109 65 -181 46 -41 -10 -48 -16 -74 -65 l-28 -54 -107 0 c-70
0 -108 4 -108 11 0 6 10 33 21 60 19 44 29 53 80 77 32 15 59 30 59 35 0 4
-52 7 -115 7 -108 0 -115 1 -126 23 -17 31 -40 46 -71 47 -35 0 -35 -5 2 -36
16 -14 35 -42 41 -63 10 -33 8 -44 -12 -86 -29 -60 -63 -86 -122 -92 -60 -7
-110 11 -147 53 -24 28 -30 44 -30 82 0 55 24 108 62 136 23 16 52 21 160 28
204 13 319 -11 374 -79 20 -25 20 -25 132 -18 l112 7 0 48 c0 32 5 52 17 61
24 20 53 89 53 127 0 18 -7 47 -16 65 l-15 32 25 -27 c28 -31 51 -123 41 -167
l-6 -28 203 -7 c538 -18 810 -25 996 -26 l203 0 -3 123 -3 122 -124 6 c-123 7
-140 12 -141 47 0 10 17 11 73 7 39 -3 286 -17 547 -31 660 -35 962 -53 967
-57 2 -2 -10 -10 -26 -17 -25 -10 -90 -9 -338 4 -170 9 -365 19 -436 22 l-127
7 6 -119 c4 -65 9 -121 11 -124 3 -3 68 -6 145 -8 103 -3 138 -1 133 8 -4 6
-4 22 -1 36 l6 24 144 0 c80 0 151 -3 160 -6 14 -6 16 -102 16 -990 0 -931 1
-984 18 -983 9 0 35 3 57 7 39 7 40 8 46 57 l6 50 1 -62 c1 -35 5 -63 10 -63
4 0 23 4 42 9 19 5 47 12 63 15 l27 6 -6 293 c-5 248 -4 298 9 332 15 37 16
17 16 -292 1 -183 2 -333 4 -333 8 0 124 22 138 26 15 4 17 56 21 522 5 511 6
518 28 572 37 88 43 84 35 -22 l-7 -98 84 0 c137 0 128 -9 128 141 l0 129 -86
0 c-64 0 -85 3 -82 13 3 8 34 14 89 17 l84 5 3 90 c2 50 0 109 -3 131 -5 35
-9 41 -25 37 -14 -4 -20 0 -20 12 0 9 9 19 20 22 15 4 20 14 20 37 0 26 82
265 120 351 5 12 9 -478 9 -1187 l1 -1208 -24 0 c-13 0 -45 3 -71 7 l-48 6 5
229 c4 186 2 228 -9 228 -10 0 -13 -46 -13 -239 l0 -238 53 -7 c86 -10 139 -7
207 12 l65 19 0 404 c0 385 -8 1071 -21 1746 l-6 312 -64 3 c-50 2 -62 6 -55
16 7 12 43 12 212 3 269 -15 289 -18 289 -43 0 -16 -5 -19 -22 -15 -13 3 -90
9 -173 12 l-150 7 3 -99 3 -100 182 -6 c100 -4 309 -10 465 -13 l282 -7 0 90
0 91 -117 6 c-65 3 -186 9 -270 12 -113 5 -155 10 -164 20 -7 8 -9 17 -6 20 8
8 726 -25 762 -36 27 -7 25 -8 -20 -9 l-50 -1 0 -197 c0 -109 -1 -585 -2
-1058 l-3 -860 -60 3 -60 4 0 169 c0 102 -4 169 -10 169 -23 0 -28 -43 -23
-202 l6 -166 76 -6 c65 -6 86 -3 146 17 l70 25 0 1056 c0 697 3 1056 10 1056
6 0 165 -9 355 -20 190 -11 351 -20 358 -20 10 0 13 -175 12 -921 -1 -506 0
-922 2 -924 10 -10 178 -7 216 3 l42 13 0 909 0 909 88 -5 c203 -12 417 -21
421 -18 8 6 -11 113 -23 129 -8 12 -41 22 -102 31 -49 8 -116 23 -149 34 -80
26 -305 58 -488 70 -81 5 -152 12 -157 15 -15 9 -294 34 -390 35 -99 1 -153
10 -235 41 -36 13 -113 27 -195 36 -97 10 -138 18 -147 29 -7 10 -70 28 -170
48 -126 26 -159 36 -161 50 -5 23 -33 33 -190 66 -108 23 -137 32 -155 53 -14
15 -54 35 -107 52 -47 16 -90 35 -95 42 -6 8 -32 27 -59 42 l-48 28 -2 234
c-1 225 -2 236 -25 278 -17 33 -26 75 -36 166 -7 66 -19 134 -27 150 -8 17
-18 52 -22 80 -5 44 -13 56 -60 100 -70 65 -95 127 -76 186 12 36 11 47 -9
108 -12 37 -26 108 -31 158 -14 151 -53 206 -154 218 -37 5 -72 18 -108 41
-89 58 -145 57 -348 -1 -142 -41 -264 -95 -274 -121 -7 -17 -17 -193 -28 -489
-3 -73 -8 -96 -25 -120 -29 -40 -62 -143 -72 -221 -4 -35 -9 -66 -12 -68 -3
-3 -232 30 -509 72 l-505 77 -61 60 c-62 62 -120 151 -126 195 -3 25 -3 25 70
23 39 -1 72 2 72 7 0 5 -28 43 -62 85 -115 140 -248 320 -269 362 -26 54 -19
66 37 57 42 -6 44 -5 44 18 0 13 -20 65 -44 115 -24 49 -54 119 -67 154 -13
35 -43 98 -66 139 -24 41 -43 80 -43 86 0 22 60 67 97 73 31 5 39 11 41 31 8
51 -17 98 -79 152 -119 105 -210 256 -228 379 -11 79 -16 90 -82 169 -77 92
-111 173 -117 278 -4 77 -1 99 27 191 19 63 27 109 22 114 -19 19 -87 -18
-150 -82 -64 -64 -106 -138 -131 -230 -15 -56 -53 -136 -85 -180 -14 -19 -25
-44 -25 -56 0 -36 -117 -257 -161 -304 -40 -42 -69 -95 -69 -126 0 -10 10 -15
33 -15 48 0 104 -18 111 -36 7 -19 -21 -68 -58 -103 -14 -13 -37 -54 -51 -90
-17 -44 -50 -98 -101 -161 -99 -123 -112 -154 -71 -169 117 -46 128 -59 87
-111 -11 -15 -20 -41 -20 -63 0 -55 -20 -87 -133 -210 -136 -147 -189 -209
-183 -214 2 -3 52 3 111 12 58 9 108 15 110 13 2 -2 -21 -33 -51 -70 -34 -42
-68 -73 -94 -84 -22 -10 -42 -26 -45 -35 -3 -9 -12 -20 -19 -22 -21 -8 -137
28 -271 85 -97 42 -133 52 -193 56 -69 4 -77 7 -109 40 -48 48 -113 150 -113
177 0 35 24 47 107 54 43 3 78 11 80 17 2 7 -22 43 -55 80 -92 109 -148 186
-217 300 -67 109 -88 170 -65 184 7 4 55 11 106 15 97 7 113 17 77 46 -51 42
-164 185 -173 220 -6 21 -30 59 -55 86 -25 26 -50 64 -56 83 -17 51 -78 166
-99 185 -10 9 -24 14 -31 10 -19 -12 -4 -140 25 -221 27 -74 32 -104 18 -104
-15 0 -39 32 -93 120 -43 72 -50 80 -45 50 3 -19 8 -78 11 -130 l6 -95 -24 29
c-37 43 -47 91 -47 230 0 69 -4 126 -9 126 -12 0 -21 -36 -21 -86 0 -81 -65
-278 -99 -298 -5 -3 -12 10 -15 29 -8 39 -29 46 -46 16 -5 -11 -10 -44 -10
-73 0 -57 -18 -96 -39 -83 -9 5 -11 24 -6 67 7 54 6 60 -11 56 -25 -4 -81 -81
-94 -127 -14 -54 3 -100 41 -108 45 -9 53 -25 39 -81 -14 -59 -48 -118 -60
-106 -5 5 -10 38 -12 74 l-3 65 -30 -58 c-16 -32 -40 -67 -52 -79 -36 -34 -37
-4 -4 97 16 50 27 92 24 95 -8 8 -40 -37 -95 -137 -52 -95 -120 -183 -132
-172 -3 3 3 33 15 66 11 34 19 78 17 99 l-3 38 -36 -55 c-47 -70 -129 -159
-168 -182 -43 -25 -41 -8 15 88 53 93 74 140 74 166 0 32 -18 21 -62 -38 -49
-68 -130 -164 -134 -160 -2 2 8 25 22 52 14 28 32 73 40 102 13 44 28 64 100
132 47 45 105 93 130 107 42 25 48 26 83 14 33 -11 44 -10 82 7 49 22 105 80
115 119 4 14 2 36 -5 50 -9 20 -18 24 -53 24 -59 1 -120 16 -133 34 -7 9 -32
16 -61 18 -41 3 -49 6 -52 25 -2 12 9 35 26 55 36 41 57 82 67 128 11 56 61
152 95 185 l31 30 -7 -54 c-10 -73 8 -65 64 30 24 41 45 76 47 78 2 2 25 7 51
12 26 5 55 16 65 25 45 41 110 260 82 277 -13 8 -111 -40 -198 -96 -38 -25
-71 -44 -73 -42 -2 2 19 41 47 86 76 124 69 139 -28 59 -33 -27 -63 -50 -66
-50 -11 0 37 73 79 121 72 83 135 272 156 474 14 124 8 177 -26 240 -43 81
-22 124 36 77 32 -26 40 -140 29 -422 -9 -227 -19 -323 -38 -359 -16 -29 -14
-71 3 -71 8 0 24 16 36 35 12 19 27 35 34 35 7 0 26 -33 41 -72 41 -104 61
-135 93 -141 40 -8 82 -54 82 -88 0 -34 -3 -35 -38 -9 -15 11 -45 23 -65 27
-35 5 -41 2 -82 -40 -46 -49 -67 -98 -55 -132 10 -28 68 -59 195 -101 113 -37
164 -43 273 -29 42 6 52 11 52 26 0 10 -15 28 -32 40 -59 39 -149 176 -195
299 -13 36 -42 94 -63 130 -22 36 -48 90 -58 120 -38 110 -72 309 -72 419 0
138 -48 315 -102 377 -35 39 -50 42 -96 14z m2353 -1092 c-12 -143 -13 -140
53 -207 57 -59 101 -126 89 -137 -3 -4 -26 10 -50 30 -24 20 -49 36 -54 36 -6
0 -18 -11 -27 -25 -20 -31 -43 -23 -55 19 -7 25 -10 28 -16 13 -11 -25 2 -80
28 -118 31 -46 105 -94 169 -109 66 -16 81 -29 103 -88 25 -67 52 -111 98
-159 23 -24 39 -44 36 -47 -7 -7 -188 70 -227 98 -21 14 -41 26 -44 26 -4 0
-2 -16 4 -36 10 -40 4 -84 -13 -84 -6 0 -25 16 -43 35 -21 22 -43 35 -59 35
-59 0 -49 -19 108 -196 99 -112 155 -188 155 -210 0 -9 -10 -11 -35 -7 -30 5
-35 3 -35 -14 0 -10 -6 -28 -14 -39 -19 -25 -37 -9 -45 43 -5 29 -13 41 -35
51 -28 14 -56 64 -56 102 0 11 -4 20 -10 20 -5 0 -10 -9 -10 -21 0 -31 -19
-59 -40 -59 -26 0 -29 7 -76 150 l-40 125 -18 -60 c-29 -99 -46 -132 -56 -115
-12 19 -15 8 -29 -95 -7 -44 -16 -84 -21 -89 -6 -6 -19 -1 -36 15 -46 42 -49
57 -20 97 50 70 7 61 -76 -16 -26 -24 -48 -41 -48 -36 1 25 32 139 46 167 9
18 41 65 70 106 30 40 54 84 54 97 0 34 34 51 118 59 61 5 72 4 72 -9 0 -20
11 -20 54 -2 43 18 78 63 74 95 -2 20 -12 29 -38 37 -30 10 -38 19 -52 60 -9
27 -17 57 -17 67 -2 50 -79 23 -137 -48 -22 -26 -56 -55 -76 -66 l-38 -19 0
22 c1 49 103 244 132 254 23 7 112 188 123 249 6 38 38 85 58 85 5 0 6 -33 2
-82z m298 -1034 c88 -45 148 -124 161 -211 9 -59 -6 -54 -49 13 -28 43 -39 54
-48 45 -9 -9 -6 -27 12 -74 13 -34 24 -73 25 -87 1 -22 -2 -25 -32 -22 -32 2
-33 1 -30 -30 3 -32 1 -33 -35 -36 -44 -4 -57 -24 -32 -52 10 -11 57 -40 106
-65 96 -49 149 -89 149 -111 0 -7 40 -66 88 -131 107 -142 127 -172 119 -180
-9 -8 -79 50 -121 102 -21 25 -46 50 -57 55 -18 10 -18 8 -12 -36 l6 -47 -25
19 c-36 26 -47 47 -68 123 -10 36 -27 86 -38 111 l-19 45 -19 -85 -19 -85 -64
109 c-42 71 -67 103 -71 94 -4 -7 -11 -38 -15 -68 -12 -99 -17 -99 -36 -1 -19
97 -54 182 -78 189 -12 4 -13 -13 -7 -105 7 -108 -1 -163 -24 -163 -6 0 -15
11 -22 25 -14 32 -21 26 -55 -43 l-28 -57 -3 68 c-2 37 -7 67 -12 67 -4 0 -15
3 -23 6 -11 4 -31 -17 -66 -70 -29 -42 -57 -76 -63 -76 -6 0 -20 -7 -30 -17
-29 -26 -23 -80 17 -143 19 -30 35 -58 35 -64 0 -18 33 -46 56 -46 12 0 24 -5
26 -11 3 -8 14 -7 35 5 40 20 57 20 73 1 26 -31 51 -13 75 52 26 74 37 89 71
97 14 4 29 18 34 31 17 44 90 25 139 -35 22 -28 44 -43 74 -50 23 -6 62 -25
86 -42 23 -17 68 -43 100 -58 31 -15 75 -47 98 -71 47 -47 87 -119 74 -132 -4
-4 -30 3 -56 17 -26 15 -58 26 -70 26 -21 0 -54 30 -90 80 -17 24 -17 23 -11
-65 6 -92 -3 -130 -24 -109 -7 7 -27 47 -46 90 -22 52 -46 89 -69 109 -19 17
-35 37 -35 46 0 8 -6 24 -14 34 -14 19 -15 19 -35 1 -12 -11 -21 -25 -21 -31
0 -7 -8 -23 -19 -36 l-18 -23 -16 25 c-9 13 -20 43 -26 67 -13 61 -21 64 -21
9 0 -39 -5 -53 -30 -79 -38 -40 -38 -73 0 -129 33 -49 36 -59 17 -59 -21 0
-73 60 -101 118 -15 28 -30 52 -34 52 -4 0 -29 -12 -57 -25 -46 -24 -50 -25
-55 -8 -4 15 -16 18 -63 18 -32 0 -63 3 -69 6 -6 4 -18 30 -28 59 l-17 52 -63
-56 c-34 -31 -69 -56 -76 -56 -24 0 -15 25 22 61 92 88 82 150 -27 164 -30 3
-68 11 -84 17 -27 9 -41 6 -106 -26 -69 -33 -109 -39 -109 -16 0 26 251 217
270 205 5 -3 6 -21 3 -40 -8 -48 15 -46 90 6 33 23 78 47 101 54 50 15 60 40
77 179 17 147 10 156 -40 51 -49 -104 -59 -119 -75 -106 -6 5 -24 11 -41 13
-28 3 -30 6 -33 51 -2 29 3 60 12 79 17 33 21 78 8 78 -11 0 -58 -51 -121
-132 -60 -77 -108 -121 -123 -112 -24 15 29 180 84 261 31 45 72 73 110 73 61
1 159 77 174 135 3 14 9 25 12 25 4 0 28 -21 54 -47 33 -33 48 -55 48 -73 0
-15 11 -37 25 -50 l25 -24 35 34 c19 18 36 32 39 29 2 -2 16 -28 30 -57 15
-29 33 -55 41 -58 17 -7 164 11 173 21 18 18 -6 250 -33 318 -9 22 6 22 48 1z
m2278 -515 c11 -11 19 -30 17 -42 -3 -20 -8 -22 -59 -19 -48 3 -60 0 -88 -23
-36 -31 -83 -44 -161 -45 l-55 -1 45 -15 c85 -26 131 -28 188 -5 58 23 117 27
128 9 20 -32 -138 -93 -212 -82 -31 4 -54 1 -88 -14 -25 -12 -46 -25 -46 -30
0 -4 16 -22 35 -39 23 -21 35 -40 35 -57 0 -49 27 -42 98 26 37 36 81 72 99
81 66 35 113 13 113 -51 0 -76 -44 -105 -230 -152 -185 -47 -234 -80 -119 -80
34 0 91 -5 126 -12 l64 -12 34 37 c35 38 61 45 98 25 34 -17 46 -39 47 -80 0
-74 -67 -104 -213 -95 -70 4 -95 9 -118 26 -19 14 -37 20 -49 16 -25 -8 -92
-94 -83 -108 7 -12 329 -3 388 11 22 6 57 13 78 16 l37 7 0 -90 c0 -102 -5
-121 -30 -121 -28 0 -78 47 -85 80 -4 16 -11 32 -16 36 -17 10 -39 -17 -39
-48 0 -40 -53 -93 -108 -107 -55 -15 -79 -2 -87 47 -10 63 -23 84 -48 80 -14
-2 -28 -16 -40 -41 -9 -20 -35 -50 -57 -65 -21 -15 -39 -30 -40 -34 -1 -30
240 -42 375 -19 39 6 94 13 123 14 49 2 56 -1 83 -31 28 -32 38 -75 20 -87 -6
-3 -46 -8 -90 -12 -44 -3 -85 -10 -93 -15 -20 -13 16 -36 97 -60 39 -11 73
-24 78 -27 4 -4 -16 -18 -44 -32 l-52 -24 74 -10 c69 -9 74 -12 74 -35 0 -16
-9 -29 -26 -39 -24 -13 -31 -13 -80 12 -30 14 -103 69 -163 122 -60 52 -132
106 -160 120 -28 13 -103 34 -166 45 -147 27 -160 35 -160 99 0 39 6 56 27 82
21 24 27 41 26 72 -2 31 3 46 22 63 14 13 25 32 25 43 0 10 12 29 28 40 24 19
25 22 11 34 -31 25 -37 47 -22 91 18 51 20 204 4 245 -11 25 -10 34 5 60 17
29 17 31 0 50 -35 39 2 86 82 101 29 5 89 25 134 44 130 53 175 59 209 25z
m-4581 -303 c169 -30 229 -45 240 -58 12 -14 51 -22 185 -38 259 -30 236 -24
315 -98 39 -36 70 -71 70 -78 0 -6 7 -17 15 -24 9 -7 14 -15 11 -17 -2 -2 -59
6 -127 17 l-124 21 -55 52 c-113 107 -123 114 -172 121 -41 6 -47 5 -42 -8 3
-9 18 -16 33 -16 15 0 42 -14 66 -35 l40 -35 -30 5 c-16 3 -75 9 -129 15 l-99
9 -47 46 c-33 32 -54 46 -69 43 -19 -3 -15 -10 35 -65 l56 -63 -34 0 c-26 0
-43 9 -73 40 -21 22 -47 40 -58 40 -16 0 -15 -4 10 -36 l28 -37 -58 5 c-40 3
-57 1 -57 -7 0 -9 33 -15 103 -19 56 -4 122 -10 147 -13 41 -6 44 -5 31 11 -8
9 -12 18 -10 19 2 2 66 -4 142 -13 134 -14 140 -16 180 -50 39 -33 49 -36 211
-62 94 -15 175 -28 181 -28 5 0 -6 13 -25 30 -19 16 -32 29 -29 30 9 0 198
-39 224 -46 19 -6 19 -5 3 11 -9 10 -56 25 -114 37 -92 19 -103 24 -159 71
-33 28 -53 48 -44 45 9 -4 76 -18 150 -32 74 -15 150 -36 170 -46 26 -14 82
-24 205 -37 135 -14 172 -21 184 -35 12 -14 47 -21 184 -33 119 -11 175 -20
186 -30 9 -8 24 -15 33 -15 10 0 17 -8 17 -19 0 -15 12 -20 66 -29 37 -6 74
-18 84 -27 21 -19 134 -40 330 -61 94 -10 151 -21 161 -31 12 -10 73 -18 215
-29 190 -15 200 -17 219 -40 20 -24 23 -24 224 -31 190 -6 205 -8 230 -28 17
-15 46 -25 87 -30 50 -5 67 -12 90 -36 27 -28 27 -29 5 -29 -12 0 -19 -4 -16
-10 4 -6 -14 -10 -46 -10 -49 0 -55 3 -105 50 -53 50 -98 71 -56 27 12 -13 22
-27 22 -31 0 -5 -42 -5 -92 -1 -92 7 -93 8 -140 51 -44 41 -69 54 -68 37 1 -5
21 -28 45 -53 25 -25 45 -47 45 -50 0 -3 -25 -3 -55 -2 -53 4 -56 6 -106 63
-30 35 -59 59 -71 59 -18 0 -16 -4 12 -40 l32 -40 -44 0 c-38 0 -46 4 -61 30
-10 17 -25 30 -34 30 -14 0 -14 -3 1 -25 22 -34 21 -35 -26 -35 -39 0 -46 5
-71 40 -16 22 -33 40 -38 40 -14 0 -11 -9 11 -40 15 -21 17 -30 8 -33 -10 -4
-11 -7 0 -18 18 -20 15 -29 -12 -29 -16 0 -38 18 -72 59 -48 59 -87 83 -64 42
5 -11 15 -23 20 -26 25 -15 3 -20 -82 -17 l-92 4 -94 69 c-52 38 -99 69 -104
69 -5 0 12 -20 39 -46 l48 -45 -70 6 c-68 6 -71 8 -125 61 -31 30 -61 54 -68
54 -17 0 -15 -10 6 -33 17 -20 16 -20 -26 -14 -36 4 -42 3 -38 -9 5 -13 -5
-14 -67 -9 -57 6 -75 11 -87 28 -48 68 -61 77 -106 77 -51 0 -51 -15 0 -24 28
-5 45 -21 90 -81 31 -41 56 -76 56 -77 0 -2 -27 -1 -60 0 -58 4 -60 5 -105 58
-26 30 -53 54 -62 54 -17 0 -17 1 34 -67 l22 -29 -62 3 -62 4 -77 82 c-43 45
-78 84 -78 87 0 3 21 4 48 2 37 -3 45 -1 35 8 -6 7 -36 15 -65 18 -48 4 -60
11 -120 63 -36 33 -74 59 -84 59 -12 0 22 -41 101 -121 87 -88 113 -120 95
-115 -14 3 -46 6 -72 6 -46 0 -51 3 -152 95 -65 59 -109 93 -118 90 -10 -4 6
-26 56 -75 l71 -70 -35 0 c-19 0 -86 5 -149 10 l-113 9 -72 59 c-93 76 -121
94 -141 90 -11 -2 -3 -19 36 -66 28 -35 49 -66 46 -69 -3 -3 -43 -2 -89 2
l-84 7 -109 84 c-95 74 -114 84 -149 84 -23 0 -58 3 -80 7 -36 6 -38 5 -28
-14 9 -16 25 -21 76 -26 62 -6 71 -10 153 -73 l88 -66 -130 7 c-71 3 -138 9
-147 11 -13 4 -18 0 -18 -14 0 -18 9 -21 88 -26 204 -14 494 -27 499 -23 3 3
-8 23 -23 44 l-28 38 45 -43 45 -43 150 -10 c82 -5 161 -9 176 -7 16 2 36 -6
50 -18 19 -17 40 -23 112 -27 85 -5 89 -6 126 -42 l38 -37 154 -14 c84 -7 168
-14 186 -14 l33 0 -31 46 -32 45 74 -6 c40 -4 79 -8 87 -11 9 -3 11 1 7 12
-10 27 57 11 106 -25 39 -28 49 -31 122 -31 69 0 83 -3 111 -24 29 -23 42 -25
141 -26 99 -2 111 -4 134 -25 27 -26 130 -47 130 -27 0 6 -4 14 -10 17 -26 16
0 20 114 15 95 -4 128 -9 142 -21 13 -11 48 -19 107 -24 79 -6 86 -5 81 10 -6
16 2 17 92 10 69 -5 106 -12 124 -24 29 -20 170 -38 170 -21 0 6 37 10 94 10
74 0 96 -3 107 -16 11 -13 29 -15 101 -12 48 3 91 1 95 -3 13 -13 308 -24 300
-12 -4 6 -65 14 -141 18 -133 7 -135 8 -163 37 l-28 31 90 -7 c130 -10 216
-43 347 -133 60 -42 114 -86 120 -98 7 -17 48 -40 144 -82 108 -47 134 -62
134 -78 0 -17 24 -30 130 -74 109 -44 131 -57 136 -78 5 -19 30 -36 114 -78
81 -41 109 -60 113 -77 5 -20 25 -30 122 -62 91 -29 118 -43 125 -60 7 -19 26
-25 159 -50 129 -24 153 -31 163 -49 6 -12 12 -23 13 -25 1 -1 69 -16 150 -32
82 -16 151 -34 155 -40 8 -14 157 -46 256 -56 39 -4 68 -12 71 -20 12 -32 104
-46 443 -63 102 -6 200 -15 218 -20 18 -5 85 -15 150 -21 155 -14 340 -37 429
-52 56 -9 74 -16 79 -31 3 -10 4 -20 2 -21 -8 -5 -440 14 -506 22 -50 7 -86
19 -113 36 -38 25 -69 34 -69 19 0 -5 16 -18 35 -31 58 -37 46 -45 -62 -37
-85 7 -103 12 -152 41 -75 45 -119 47 -68 2 l22 -19 -75 6 c-51 4 -84 12 -102
26 -15 10 -35 19 -44 19 -16 0 -16 -1 0 -19 25 -27 12 -41 -35 -41 -29 0 -60
11 -110 41 -81 47 -108 48 -48 1 49 -37 48 -37 -80 -22 -69 8 -89 14 -111 35
-14 14 -34 25 -45 25 -17 0 -17 -1 0 -20 18 -20 17 -20 -16 -19 -19 0 -58 4
-87 8 -49 7 -52 6 -46 -12 5 -15 2 -18 -13 -13 -10 3 -83 8 -163 11 -144 6
-145 6 -197 41 -29 19 -63 34 -75 34 -21 -1 -19 -4 15 -34 l39 -32 -64 4 c-34
2 -70 10 -78 17 -8 7 -44 16 -80 20 -36 4 -75 13 -87 21 -12 8 -33 14 -45 14
-22 -1 -22 -2 7 -25 l30 -25 -55 0 c-80 0 -82 3 -67 85 16 83 27 89 117 56 39
-15 80 -21 127 -21 146 2 347 -15 386 -33 48 -21 405 -38 393 -19 -5 9 11 12
56 12 44 0 59 3 48 10 -8 5 -40 10 -71 10 -36 0 -77 9 -117 25 -88 36 -124 31
-44 -5 34 -16 62 -30 62 -32 0 -2 -60 0 -132 3 l-133 6 -112 57 c-64 32 -119
53 -128 50 -11 -5 -6 -11 22 -26 68 -36 64 -41 -30 -35 -83 6 -93 9 -178 57
-105 61 -148 64 -60 5 33 -22 61 -43 61 -47 0 -5 -21 -8 -46 -8 -36 0 -66 10
-126 42 -74 39 -79 45 -76 70 3 16 2 28 0 28 -3 0 -43 -20 -89 -45 -45 -25
-89 -45 -96 -45 -7 0 -46 18 -87 40 -41 22 -84 40 -94 40 -18 0 -19 -1 -1 -20
10 -11 16 -22 14 -24 -9 -7 -236 21 -256 32 -12 7 -32 12 -44 12 -22 0 -22 0
-3 -21 l19 -21 -85 7 c-78 6 -90 10 -145 48 -57 40 -65 42 -148 47 -60 3 -86
2 -83 -6 3 -7 -29 -9 -102 -6 -101 4 -109 6 -137 33 -44 41 -76 39 -38 -3 15
-17 12 -18 -104 -18 -111 0 -125 2 -164 25 -39 22 -56 25 -147 25 l-103 0 -58
41 c-85 60 -107 47 -29 -16 l62 -50 -113 -3 c-101 -2 -115 -1 -138 18 -23 18
-39 21 -124 19 -92 -1 -100 0 -152 30 -61 35 -96 42 -57 11 l25 -20 -118 0
c-100 0 -123 3 -145 19 -24 16 -92 36 -92 27 0 -2 20 -17 45 -33 25 -15 45
-31 45 -35 0 -5 -48 -8 -108 -8 l-107 0 -79 56 c-48 34 -86 54 -99 52 -17 -2
-12 -9 31 -38 28 -19 52 -37 52 -40 1 -14 -127 4 -151 21 -20 14 -44 19 -97
19 -50 0 -73 4 -82 15 -14 16 -40 20 -40 6 0 -5 7 -11 15 -15 33 -12 12 -21
-42 -18 -43 3 -67 11 -91 29 -18 13 -40 23 -49 21 -12 -2 -1 -15 36 -43 l52
-40 -46 -3 c-69 -5 -44 -22 32 -22 65 0 66 0 48 20 -18 20 -17 20 37 20 32 0
62 -6 74 -15 30 -23 51 -19 29 5 -18 20 -17 20 29 20 32 0 56 -7 75 -21 22
-16 49 -22 117 -26 49 -3 102 -12 118 -20 23 -12 57 -13 182 -7 84 3 152 10
149 14 -2 4 46 10 106 13 90 5 115 4 132 -8 15 -11 49 -15 117 -15 69 0 102
-4 116 -15 15 -11 54 -14 177 -15 87 0 156 4 153 9 -6 9 64 21 123 21 20 0 55
-11 80 -25 40 -23 53 -25 172 -25 70 0 150 -4 176 -9 76 -15 282 -19 277 -6
-4 8 10 10 45 5 51 -6 63 -13 116 -62 28 -25 42 -29 165 -43 163 -18 150 -18
150 -2 0 19 256 7 295 -14 l29 -17 -96 -48 -97 -48 -24 22 c-15 14 -30 20 -41
16 -15 -6 -14 -10 10 -35 l27 -28 -27 -7 c-15 -3 -53 -4 -85 -2 -51 4 -67 10
-122 51 -79 59 -122 67 -61 11 l27 -25 -85 6 -84 6 -68 60 c-53 48 -71 58 -85
51 -14 -8 -9 -18 42 -71 l58 -61 -62 0 c-59 0 -66 3 -140 55 -74 52 -111 67
-111 45 0 -5 16 -22 35 -37 19 -15 35 -30 35 -33 0 -10 -84 2 -105 15 -11 7
-38 16 -60 20 -23 4 -63 24 -93 47 -35 26 -59 37 -70 33 -14 -6 -8 -15 33 -51
l49 -44 -80 0 -80 0 -79 64 c-95 75 -139 80 -54 5 l54 -47 -90 5 c-86 5 -93 7
-155 49 -62 42 -96 55 -88 35 2 -5 30 -30 63 -56 l60 -47 -101 5 -101 5 -107
66 c-139 86 -186 90 -61 5 l90 -61 -99 7 -100 6 -103 71 c-71 49 -107 68 -114
61 -7 -7 11 -30 58 -73 l68 -62 -60 6 c-168 17 -173 19 -225 64 -38 33 -55 42
-71 37 -20 -7 -19 -9 17 -46 44 -45 47 -44 -89 -29 -84 8 -90 11 -150 58 -34
26 -73 49 -86 50 -23 1 -22 -1 14 -39 l39 -39 -73 0 -73 0 -61 54 c-55 47 -97
67 -97 45 0 -4 21 -26 48 -48 l47 -41 -80 2 c-75 3 -79 4 -85 28 -5 20 -43 46
-193 130 -102 58 -192 112 -199 121 -7 9 -57 42 -110 73 -67 39 -98 63 -98 75
0 13 -30 36 -99 74 -153 86 -181 105 -181 126 0 13 -21 32 -62 57 -120 72
-208 135 -208 148 0 8 -51 48 -112 90 -145 98 -148 101 -148 117 0 8 -47 47
-105 87 -82 57 -105 78 -105 96 0 16 -13 32 -42 51 -94 62 -158 117 -158 135
0 14 -19 30 -67 54 -38 19 -87 48 -111 66 -37 26 -41 34 -31 46 8 10 9 18 2
22 -5 4 -60 49 -121 101 l-112 94 32 23 c30 22 32 23 67 7 20 -9 137 -34 261
-57z m3777 -775 l21 -26 -36 -3 c-56 -5 -94 6 -132 38 l-35 29 80 -6 c71 -5
83 -9 102 -32z m206 -28 c29 -27 20 -33 -50 -33 -55 0 -71 4 -90 22 -13 12
-23 24 -23 27 0 14 146 -1 163 -16z m-2453 -1005 c59 -15 136 -53 148 -74 8
-14 26 -16 113 -15 58 1 106 7 110 13 4 6 189 1 575 -16 313 -14 579 -26 590
-26 14 0 24 -8 27 -22 4 -12 5 -24 3 -26 -4 -3 -988 44 -1103 54 l-73 6 0 -26
c0 -25 -1 -26 -22 -12 -39 25 -101 30 -139 11 -49 -25 -87 -63 -99 -100 -10
-32 -11 -32 -92 -38 -45 -4 -86 -3 -91 2 -24 24 46 140 86 141 7 1 26 7 42 16
28 13 22 14 -80 10 l-110 -4 -35 44 c-31 39 -40 44 -75 44 l-40 0 33 -20 c46
-28 72 -76 72 -133 0 -65 -22 -105 -73 -128 -112 -50 -219 4 -234 121 -8 55
26 120 80 156 36 24 55 29 142 34 112 8 178 4 245 -12z m-856 -90 c3 -24 8
-264 12 -535 l6 -491 -77 -7 c-82 -8 -607 2 -710 13 l-60 7 -3 491 -2 491 87
7 c49 4 151 14 228 22 114 12 390 36 492 43 18 1 23 -5 27 -41z m6816 -264
l35 -6 -3 -910 -2 -910 -43 7 c-89 14 -81 -25 -74 348 4 182 7 588 7 904 l0
573 23 0 c12 0 38 -3 57 -6z m-6495 -173 c-15 -48 -7 -111 18 -150 l26 -38
-126 -8 c-68 -3 -128 -4 -131 0 -4 4 -9 51 -10 105 -4 115 -15 106 136 109 87
1 93 0 87 -18z m-1235 -119 l0 -117 -298 -1 c-163 -1 -504 -6 -757 -12 -252
-6 -460 -10 -461 -9 -1 1 24 34 55 72 35 44 73 78 101 93 24 12 40 22 35 23
-6 1 17 7 50 15 39 9 212 19 500 29 242 9 512 19 600 23 88 4 163 6 168 4 4
-2 7 -56 7 -120z m-1600 73 c65 -34 79 -136 25 -182 -31 -27 -99 -31 -133 -7
-38 26 -55 70 -42 107 18 54 63 96 103 97 10 0 31 -7 47 -15z m40 -303 c51
-39 35 -138 -28 -168 -50 -23 -99 -10 -129 35 -71 105 53 210 157 133z m1570
-156 c0 -52 -4 -96 -10 -98 -5 -1 -6 -8 -2 -15 5 -8 119 -14 385 -22 207 -6
402 -11 432 -11 54 0 55 0 55 -30 l0 -30 -112 0 c-140 0 -596 17 -700 26 l-78
6 0 33 c0 19 -5 37 -11 41 -6 3 -192 12 -412 20 -644 21 -1052 36 -1056 40 -2
2 10 19 27 38 16 19 33 48 37 65 l7 31 719 0 719 0 0 -94z m-1559 -149 c29
-19 34 -29 37 -68 2 -38 -2 -52 -23 -77 -50 -60 -139 -60 -189 -1 -32 38 -33
66 -3 110 42 62 116 78 178 36z m9 -273 c39 -34 63 -80 56 -109 -17 -68 -97
-113 -166 -95 -58 16 -85 52 -84 112 0 45 5 55 37 84 48 45 109 47 157 8z m-9
-287 c46 -31 68 -91 48 -132 -18 -39 -74 -75 -114 -75 -41 0 -96 37 -108 73
-13 41 1 96 33 129 36 36 92 38 141 5z m402 -147 c114 -6 296 -20 404 -31 194
-20 307 -34 818 -103 143 -19 386 -49 540 -65 154 -17 339 -38 410 -46 257
-30 275 -30 275 -9 0 37 37 81 82 97 55 21 263 50 291 42 12 -4 54 -39 92 -78
39 -40 79 -77 90 -83 16 -9 5 -14 -69 -27 -100 -19 -105 -17 -136 44 -23 43
-82 97 -88 79 -2 -6 9 -26 26 -43 43 -46 55 -74 48 -113 -18 -94 -134 -150
-230 -110 -34 14 -96 81 -96 104 0 8 -6 12 -12 9 -21 -7 -11 -84 16 -134 15
-25 26 -46 26 -48 0 -4 -228 26 -465 60 -132 19 -278 39 -325 45 -47 6 -155
24 -240 40 -85 16 -252 41 -370 55 -262 31 -378 47 -580 79 -289 47 -535 78
-748 96 -127 10 -182 19 -182 29 0 3 25 19 56 35 31 17 66 44 77 62 18 27 27
31 52 28 16 -2 124 -8 238 -14z m-392 -180 c45 -25 64 -115 33 -159 -37 -53
-126 -59 -169 -11 -22 24 -31 100 -15 129 21 41 107 64 151 41z m16 -290 c43
-26 56 -54 50 -104 -8 -56 -43 -86 -102 -86 -79 0 -128 64 -105 136 23 69 93
93 157 54z m547 -230 c160 -28 368 -68 461 -90 94 -21 280 -57 415 -79 135
-23 286 -52 335 -66 339 -93 444 -117 690 -155 77 -12 184 -30 239 -41 124
-24 126 -24 126 5 0 32 38 86 76 108 47 27 157 48 260 48 78 0 97 -4 143 -26
37 -19 49 -29 40 -35 -26 -16 -150 -41 -179 -37 -17 3 -30 4 -30 3 0 -2 7 -22
15 -45 19 -54 19 -74 -2 -117 -19 -41 -73 -79 -126 -89 -50 -9 -120 18 -148
57 -25 35 -37 37 -45 4 -4 -15 2 -41 15 -69 27 -55 68 -76 147 -76 45 0 73 -7
128 -34 39 -18 94 -42 121 -51 35 -13 69 -38 113 -82 65 -64 74 -90 31 -86
-13 2 -50 3 -82 4 -52 0 -59 3 -67 25 -6 14 -10 43 -10 64 0 29 -6 43 -22 54
-38 27 -43 20 -40 -46 3 -53 0 -69 -20 -98 -45 -68 -140 -89 -225 -51 -46 21
-65 46 -83 108 -16 52 -8 83 30 127 17 19 27 36 23 39 -14 8 -523 135 -648
161 -66 14 -194 39 -285 57 -91 17 -237 54 -325 81 -88 27 -459 123 -825 213
-366 91 -674 169 -684 173 -16 7 -12 13 32 41 42 27 75 42 111 50 2 1 134 -22
295 -49z m-535 -46 c28 -36 29 -106 1 -134 -49 -49 -142 -32 -173 32 -16 33
-16 40 -3 71 18 45 39 56 103 57 44 0 55 -4 72 -26z"/>
<path d="M6261 6411 c-1 -27 2 -32 11 -23 8 8 8 17 0 34 -10 22 -11 21 -11
-11z"/>
<path d="M5240 5426 c0 -2 37 -34 82 -71 l82 -67 -130 6 c-71 4 -148 9 -171
12 -24 3 -43 1 -43 -4 0 -20 54 -32 205 -42 89 -6 166 -16 175 -23 8 -6 29
-24 47 -39 36 -30 61 -35 238 -43 l120 -5 -73 67 c-40 38 -72 71 -72 74 0 3
26 4 58 1 53 -4 62 -9 138 -73 l80 -68 113 -2 c61 -1 115 1 118 5 4 3 14 -1
23 -9 13 -11 50 -17 136 -22 81 -4 124 -10 135 -20 11 -9 60 -17 145 -23 71
-6 147 -12 169 -15 l40 -6 -35 36 -35 37 80 -7 c69 -6 86 -12 122 -40 38 -28
53 -33 125 -39 46 -4 110 -9 143 -13 55 -6 59 -5 46 10 -12 16 -7 17 61 17 41
0 78 -4 84 -9 5 -5 54 -12 109 -16 94 -7 99 -7 85 9 -13 16 -9 17 61 11 45 -4
84 -14 99 -24 16 -11 54 -20 103 -24 75 -7 88 -2 66 20 -19 19 84 3 113 -18
32 -23 186 -41 174 -21 -13 22 98 15 126 -7 19 -15 44 -20 111 -23 80 -3 106
3 75 15 -7 3 12 6 42 6 33 1 61 -4 68 -11 18 -18 164 -27 157 -10 -6 17 54 16
74 -2 11 -9 56 -16 131 -20 104 -6 113 -5 96 9 -14 10 -44 15 -99 15 l-79 0
-66 64 c-89 84 -136 108 -59 29 31 -32 57 -61 57 -63 0 -3 -22 -3 -50 -2 -32
3 -50 0 -50 -7 0 -6 -16 -11 -36 -11 -28 0 -47 10 -88 45 -29 25 -59 45 -67
45 -8 -1 -2 -11 15 -26 15 -14 27 -26 25 -28 -2 -2 -27 0 -55 3 -41 6 -62 16
-106 54 -87 74 -107 59 -23 -18 l70 -64 -49 -1 c-44 0 -54 5 -102 45 -56 48
-93 62 -54 20 l23 -25 -56 0 c-54 0 -57 1 -93 45 -22 27 -45 45 -57 45 -18 0
-14 -8 26 -48 26 -26 47 -51 47 -56 0 -5 -21 -5 -47 -1 -38 6 -54 15 -89 53
-23 26 -45 44 -50 40 -4 -5 0 -16 9 -26 10 -10 17 -21 17 -23 0 -3 -23 -2 -52
1 -46 6 -57 13 -95 54 -59 66 -75 53 -17 -14 l47 -55 -42 -3 c-41 -3 -47 0
-106 57 -77 74 -124 86 -55 15 31 -32 39 -45 25 -41 -11 3 -47 9 -80 12 -52 6
-65 12 -102 47 -56 55 -72 44 -22 -14 l41 -48 -62 0 c-61 0 -64 1 -117 50 -30
28 -62 50 -71 50 -12 0 -6 -11 21 -35 20 -20 37 -38 37 -41 0 -4 -27 -4 -60
-2 -53 4 -65 9 -98 41 -21 20 -46 37 -57 37 -15 0 -8 -11 30 -51 l50 -51 -110
6 -110 7 -65 63 c-59 58 -100 86 -100 69 0 -4 10 -18 23 -31 l22 -24 -85 7
c-79 7 -87 10 -122 42 -62 60 -60 31 3 -36 33 -35 59 -64 57 -66 -2 -1 -57 2
-123 7 l-120 9 -40 47 c-71 83 -90 100 -115 108 -20 6 -16 -3 30 -56 l55 -63
-49 6 c-27 4 -75 7 -106 7 -57 0 -58 1 -128 65 -44 41 -78 65 -93 65 -20 0
-16 -8 36 -61 l60 -61 -79 6 c-43 3 -89 6 -101 6 -14 0 -53 27 -100 70 -42 39
-87 70 -99 71 -11 0 -58 4 -103 7 l-83 7 67 -67 c37 -37 65 -69 62 -71 -2 -2
-52 -1 -110 2 l-105 6 -120 106 c-65 58 -131 109 -146 113 -16 3 -28 5 -28 2z"/>
<path d="M5570 5106 c0 -3 44 -41 97 -85 97 -81 97 -81 156 -81 45 0 66 -5 95
-25 l37 -25 -190 0 c-151 0 -187 -3 -177 -12 9 -10 72 -14 225 -16 l212 -3
-34 28 c-19 15 -42 33 -50 40 -13 10 -6 12 38 13 44 0 52 3 47 16 -3 9 14 1
43 -20 l49 -36 136 0 c75 0 136 3 136 7 0 4 -21 29 -47 55 l-47 48 44 -1 c25
0 53 -3 62 -7 9 -4 47 -44 83 -89 37 -46 74 -83 82 -83 13 0 13 4 -1 25 -16
24 -16 25 7 25 15 0 45 -22 87 -65 38 -38 73 -65 85 -65 16 1 13 7 -20 35
l-40 35 125 0 c114 0 126 -2 138 -20 11 -18 23 -20 102 -20 50 0 90 3 90 6 0
4 -8 13 -17 20 -16 12 -8 13 54 14 66 0 73 -2 95 -28 23 -28 24 -28 121 -24
83 3 97 6 93 19 -5 13 1 14 36 8 24 -3 93 -9 154 -13 63 -4 117 -12 126 -19 9
-8 66 -15 144 -19 124 -7 128 -7 114 11 -14 17 -12 18 44 12 39 -4 70 -14 90
-29 28 -20 45 -23 161 -26 119 -4 128 -3 116 12 -12 15 -5 16 80 16 89 0 94
-1 124 -29 29 -28 35 -30 150 -37 111 -6 119 -6 106 9 -12 15 -9 17 33 17 35
0 56 -7 80 -25 29 -22 42 -25 121 -25 73 0 86 2 76 14 -9 11 -4 15 29 20 34 5
46 2 73 -18 28 -21 50 -26 179 -37 81 -7 151 -9 155 -5 16 16 -26 26 -108 26
-78 0 -88 2 -109 25 -24 25 -50 33 -50 15 0 -5 5 -10 10 -10 6 0 10 -4 10 -10
0 -25 -40 -6 -85 40 -27 27 -57 50 -67 50 -22 0 -23 -8 -1 -32 15 -17 14 -18
-29 -18 -43 0 -49 4 -105 63 -35 38 -71 67 -89 71 -25 6 -18 -4 54 -76 45 -46
82 -87 82 -91 0 -4 -24 -5 -52 -1 -48 6 -61 14 -127 76 -41 37 -84 68 -95 68
-16 0 -11 -9 29 -50 l49 -50 -45 0 c-42 0 -49 4 -114 70 -40 40 -78 70 -89 70
-16 0 -1 -20 59 -80 l80 -80 -74 0 -74 0 -81 73 c-95 86 -99 89 -120 81 -13
-5 -7 -14 26 -45 l43 -38 -55 -1 c-52 0 -59 3 -133 60 -104 80 -147 82 -48 3
65 -53 69 -58 45 -61 -21 -3 -23 -6 -13 -18 10 -12 -1 -14 -75 -14 l-86 0 -84
75 c-70 63 -136 106 -136 91 0 -3 26 -29 58 -60 l57 -56 -58 0 c-57 0 -60 1
-115 54 -31 29 -68 56 -81 59 -19 5 -7 -11 47 -66 l72 -72 -83 4 c-89 4 -82 0
-196 94 -39 32 -77 57 -86 55 -10 -2 4 -20 44 -53 33 -27 60 -53 60 -57 1 -5
-34 -8 -77 -8 l-79 0 -89 70 c-106 83 -158 98 -73 20 30 -27 57 -49 62 -50 4
0 7 -4 7 -10 0 -5 -14 -10 -31 -10 -26 0 -29 -2 -20 -14 10 -12 1 -15 -56 -18
l-68 -3 -85 89 c-55 57 -92 87 -103 85 -13 -3 -5 -17 35 -63 l52 -58 -45 7
c-39 6 -53 16 -122 91 -44 46 -86 84 -94 84 -8 0 19 -37 62 -85 54 -59 72 -85
60 -85 -17 0 -17 -1 0 -20 18 -20 17 -20 -37 -20 l-54 0 -69 85 c-37 47 -74
85 -82 85 -20 0 -17 -6 32 -70 l45 -58 -53 -4 c-51 -5 -53 -4 -107 49 -51 49
-80 65 -80 45 0 -4 18 -26 40 -47 22 -21 40 -42 40 -46 0 -4 -17 -7 -38 -6
-28 2 -49 11 -76 35 -29 25 -46 32 -79 33 -39 0 -46 4 -91 60 l-49 59 -91 0
-90 0 47 -48 c26 -26 47 -50 47 -52 0 -3 -45 -4 -101 -2 l-101 3 -100 75 c-65
48 -109 74 -126 74 -25 0 -22 -5 38 -61 64 -60 65 -60 31 -55 -18 3 -70 6
-115 6 l-81 0 -82 70 c-45 39 -92 70 -103 70 -11 0 -20 -2 -20 -4z"/>
<path d="M5850 4806 c0 -3 33 -31 73 -62 l72 -57 -63 6 c-48 5 -63 4 -60 -5 6
-17 48 -24 190 -32 118 -7 125 -9 176 -42 51 -33 58 -35 170 -41 109 -5 116
-4 97 11 -19 15 -13 16 90 11 314 -15 487 -19 492 -12 5 8 173 2 276 -9 37 -4
47 -2 41 7 -5 9 22 11 119 6 107 -5 125 -4 120 9 -4 11 7 14 54 14 50 0 65 -5
99 -29 37 -28 48 -30 164 -37 69 -3 131 -12 139 -18 10 -7 100 -11 285 -11
267 0 272 0 311 -24 39 -23 44 -23 197 -16 l157 7 54 -31 54 -31 201 -4 c122
-3 209 -9 222 -16 11 -6 58 -11 103 -11 45 1 114 -1 152 -4 39 -3 115 -8 169
-11 90 -5 98 -4 87 10 -10 12 -33 16 -90 16 -65 0 -82 4 -114 25 -38 26 -77
25 -42 -2 17 -12 14 -13 -24 -13 -36 0 -49 6 -90 45 -58 55 -90 60 -38 7 20
-21 37 -41 37 -45 0 -4 -27 -7 -60 -7 -58 0 -64 2 -135 56 -80 60 -125 73 -50
14 24 -19 44 -38 45 -42 0 -5 -33 -8 -73 -8 l-73 0 -98 75 c-54 41 -105 75
-113 75 -22 0 -7 -15 71 -75 36 -27 65 -53 66 -57 0 -3 -34 -4 -76 -1 -72 6
-81 9 -199 81 -133 80 -189 95 -81 22 36 -25 66 -48 66 -52 0 -5 -63 -8 -140
-8 -133 0 -143 1 -180 25 -36 23 -54 26 -183 32 -115 5 -147 9 -169 24 -42 30
-56 21 -18 -13 l35 -30 -119 5 -119 6 -61 60 c-34 34 -68 61 -76 61 -8 0 5
-20 30 -45 l44 -45 -106 0 -107 0 -58 53 c-54 50 -93 75 -93 60 0 -4 10 -17
22 -30 l21 -23 -69 0 c-68 0 -71 1 -109 40 -21 22 -48 40 -58 40 -17 0 -14 -7
17 -45 l37 -45 -96 0 -96 0 -55 41 c-76 56 -106 48 -34 -10 l55 -43 -132 4
-133 4 -38 37 c-21 21 -48 37 -61 37 -19 0 -16 -5 24 -40 l46 -40 -158 0 -158
1 -59 44 c-33 25 -69 45 -80 45 -19 -1 -19 -2 6 -21 14 -11 37 -29 50 -40 l23
-20 -105 6 -104 6 -72 65 c-40 35 -80 64 -90 64 -15 -1 -12 -7 16 -32 19 -17
59 -53 88 -80 l54 -48 -71 0 -70 0 -85 65 c-48 37 -95 65 -108 65 -22 0 -22
-1 7 -26 l30 -25 -54 6 c-44 5 -68 16 -121 54 -86 63 -130 85 -130 67z"/>
<path d="M4928 4087 l-108 -9 0 -129 0 -129 124 0 c68 0 131 3 140 6 14 5 16
27 16 140 l0 134 -32 -2 c-18 0 -81 -5 -140 -11z"/>
<path d="M4585 4053 c-16 -1 -54 -6 -83 -9 l-53 -6 3 -116 c2 -86 6 -117 16
-116 6 1 68 2 137 3 l125 1 0 125 0 125 -57 -1 c-32 -1 -71 -4 -88 -6z"/>
<path d="M4890 3773 l-65 -4 2 -72 c1 -40 2 -105 3 -144 l0 -73 134 0 c74 0
137 3 139 8 2 4 2 71 -1 150 l-4 142 -72 -2 c-39 -1 -100 -3 -136 -5z"/>
<path d="M4533 3763 l-82 -4 2 -141 c2 -106 6 -143 16 -146 7 -2 69 -1 137 3
l124 7 0 144 0 144 -57 -2 c-32 -1 -95 -4 -140 -5z"/>
<path d="M4862 3433 l-33 -4 3 -132 3 -132 144 -3 144 -3 -6 107 c-4 59 -7
122 -7 141 l0 33 -107 -2 c-60 0 -123 -3 -141 -5z"/>
<path d="M4460 3306 l0 -123 138 -6 c75 -2 138 -3 140 -2 2 2 0 60 -4 129 l-7
126 -133 0 -134 0 0 -124z"/>
<path d="M1659 8550 c-58 -34 -87 -157 -99 -421 -15 -317 -54 -446 -211 -684
-49 -75 -89 -138 -89 -139 0 -2 29 -9 66 -16 84 -16 98 -30 89 -87 -17 -118
-103 -288 -312 -623 -92 -145 -133 -221 -133 -243 0 -33 28 -39 160 -38 104 1
130 -1 130 -12 0 -8 -42 -73 -94 -145 -52 -72 -111 -162 -131 -199 -21 -37
-72 -104 -115 -148 -104 -109 -161 -211 -129 -231 7 -4 75 -13 151 -19 77 -7
144 -17 150 -23 14 -14 -34 -140 -128 -339 -66 -139 -120 -218 -253 -368 -44
-49 -88 -105 -98 -122 -17 -31 -17 -34 0 -50 15 -15 41 -18 180 -21 89 -2 166
-7 171 -12 20 -20 -126 -179 -254 -278 -168 -130 -435 -369 -485 -435 -44 -58
-44 -91 0 -95 22 -2 35 -12 48 -34 l18 -31 104 6 c119 8 138 -1 133 -57 -3
-28 0 -31 28 -34 25 -2 37 3 59 30 15 18 37 38 49 45 27 16 81 16 104 2 21
-13 62 4 122 51 46 36 87 56 131 64 20 4 56 21 79 39 71 53 94 67 116 67 24 0
61 37 99 100 40 65 74 99 128 126 91 47 167 146 167 219 0 44 -19 46 -68 8
-42 -32 -40 -23 17 75 51 87 117 161 158 179 19 7 46 31 61 53 15 22 34 39 44
40 9 0 46 -33 83 -72 81 -89 133 -130 156 -123 9 3 38 -6 64 -20 52 -27 85
-31 133 -14 38 13 47 38 32 85 -7 19 -10 36 -8 38 1 1 19 10 38 20 20 10 46
27 59 37 l23 19 -21 34 c-25 40 -54 61 -99 71 -22 4 -43 21 -68 53 -19 26 -49
58 -65 71 l-31 24 8 -49 c12 -70 11 -117 -2 -121 -20 -7 -103 85 -114 127 -6
22 -19 44 -30 50 -18 10 -19 7 -18 -54 2 -53 -2 -71 -18 -93 -46 -61 -74 -30
-74 83 0 35 -3 64 -7 64 -4 0 -22 -15 -41 -32 l-34 -33 7 75 c6 68 5 73 -9 56
-8 -10 -20 -40 -25 -68 -16 -71 -111 -213 -111 -165 0 9 13 51 29 94 38 105
46 143 29 143 -7 0 -37 -46 -66 -103 -29 -56 -63 -116 -77 -132 -23 -28 -24
-29 -25 -8 0 13 16 61 35 107 35 85 43 126 25 126 -5 0 -22 -24 -36 -52 -43
-86 -82 -119 -69 -58 4 17 2 30 -3 30 -17 0 -70 -67 -91 -115 -12 -28 -26 -45
-37 -45 -27 0 -13 89 27 168 29 57 41 70 80 89 85 40 209 178 230 256 6 22 20
52 31 67 22 31 39 150 20 150 -6 0 -13 -4 -16 -9 -3 -5 -31 -26 -61 -46 -44
-29 -62 -35 -84 -30 -25 5 -34 0 -70 -42 l-42 -48 26 58 c14 32 25 62 25 67 0
26 -24 4 -64 -59 -66 -102 -89 -105 -45 -4 12 26 36 88 53 138 22 63 37 91 50
93 35 7 85 -9 135 -43 28 -19 61 -35 74 -35 31 0 67 40 76 82 11 55 43 50 156
-27 114 -78 167 -103 240 -111 88 -11 102 -3 123 69 20 67 29 74 89 62 62 -11
160 -128 258 -308 21 -37 35 -71 31 -74 -3 -3 -20 5 -38 19 -18 14 -51 35 -74
46 -33 17 -48 35 -79 94 -50 96 -73 128 -92 128 -16 0 -15 -3 4 -104 l6 -28
-42 23 c-55 32 -67 16 -41 -53 10 -26 16 -48 14 -48 -2 0 -23 13 -46 30 -53
36 -96 48 -103 28 -3 -8 5 -50 19 -93 14 -44 24 -80 22 -82 -7 -7 -70 94 -90
144 -21 55 -48 85 -63 70 -6 -7 5 -47 32 -111 6 -14 4 -17 -11 -14 -20 3 -58
52 -107 137 -43 74 -62 79 -52 15 4 -26 15 -74 25 -106 10 -32 15 -58 11 -58
-10 1 -94 107 -113 143 -9 18 -17 39 -18 48 0 9 -7 22 -15 29 -24 20 -27 -8
-10 -89 16 -79 19 -121 7 -121 -4 0 -12 10 -17 23 -14 31 -69 32 -73 0 -11
-76 181 -302 257 -303 14 0 69 -19 121 -41 132 -57 129 -57 170 -5 48 62 60
100 53 165 l-6 53 34 -4 c19 -3 90 -22 159 -42 73 -22 148 -37 180 -38 59 -1
120 22 120 46 0 7 -34 62 -77 122 -162 230 -203 295 -203 320 0 25 4 28 51 38
38 8 42 29 18 98 -35 105 -89 200 -144 254 -53 52 -115 148 -115 178 0 8 17
24 38 35 58 30 76 54 69 97 -9 54 -63 117 -146 171 -81 52 -149 135 -182 223
-27 71 -25 108 5 120 36 13 56 49 56 98 0 52 -11 76 -110 222 -100 149 -114
178 -149 307 -42 154 -106 333 -157 440 -65 136 -80 276 -49 448 21 116 20
180 -5 205 -21 21 -64 26 -91 10z m1 -266 c6 -32 10 -96 10 -141 0 -137 17
-229 61 -323 44 -93 64 -121 84 -114 28 11 69 -66 47 -88 -38 -38 -156 80
-188 188 -8 30 -17 54 -19 54 -1 0 -2 -29 -1 -65 1 -52 -2 -67 -18 -78 -36
-26 -26 -43 162 -270 24 -29 56 -79 71 -112 16 -33 60 -100 100 -150 39 -49
71 -93 71 -96 0 -4 -8 -10 -17 -14 -12 -4 -24 2 -39 20 -13 16 -26 24 -36 20
-22 -9 -44 17 -67 81 -33 87 -50 114 -79 126 -15 7 -34 18 -43 25 -14 12 -16
9 -12 -34 4 -51 -7 -80 -27 -68 -21 13 -39 71 -46 144 -4 39 -8 71 -10 71 -2
0 -20 -11 -40 -25 -47 -32 -74 -33 -74 -2 1 12 7 33 15 47 24 42 17 43 -27 6
-40 -35 -68 -46 -68 -27 0 5 16 51 35 102 61 158 75 229 85 419 11 201 17 266
32 333 13 60 25 51 38 -29z m-11 -1028 c6 -24 38 -96 71 -159 33 -63 60 -125
60 -136 0 -19 -6 -21 -53 -21 -29 0 -58 -5 -65 -12 -9 -9 -12 -4 -12 23 0 46
-13 65 -30 44 -22 -26 -27 -17 -34 56 l-7 72 -20 -33 c-14 -23 -25 -31 -39
-27 -35 9 -53 -16 -58 -82 -6 -84 11 -142 67 -236 73 -120 94 -165 78 -165
-20 0 -67 53 -75 85 -14 51 -33 53 -112 11 -40 -20 -75 -35 -78 -32 -3 3 11
41 30 83 38 83 53 133 41 133 -5 0 -19 -21 -32 -46 -30 -56 -137 -198 -180
-238 -47 -45 -39 -13 25 95 31 51 64 115 73 140 9 26 31 63 48 82 41 47 103
216 103 282 0 34 28 64 88 95 82 42 97 40 111 -14z m341 -401 c18 -9 48 -54
92 -137 37 -68 85 -147 107 -177 63 -84 68 -122 12 -82 -46 33 -147 173 -170
238 -33 89 -35 92 -39 51 -2 -21 6 -71 18 -113 12 -41 18 -80 15 -85 -20 -32
-95 82 -95 144 0 20 -5 36 -10 36 -6 0 -24 -21 -40 -47 -55 -86 -38 -157 69
-286 31 -38 75 -92 98 -120 43 -52 53 -77 31 -77 -6 0 -48 38 -94 85 -45 47
-89 85 -98 85 -22 0 -45 39 -63 107 -17 66 -39 113 -53 113 -6 0 -9 -25 -8
-57 2 -46 0 -58 -13 -61 -40 -8 -51 118 -15 172 9 15 33 30 55 36 43 11 51 26
51 97 0 54 14 90 37 96 25 7 82 -2 113 -18z m-859 -354 c-6 -10 -18 -24 -27
-32 -15 -13 -16 -12 -9 11 4 14 12 31 17 37 15 19 30 5 19 -16z m414 -69 c6
-4 21 -28 34 -54 31 -62 132 -171 152 -163 8 3 32 -9 54 -27 70 -58 75 -61
118 -68 23 -4 90 -25 149 -46 129 -46 134 -44 120 47 -11 76 -2 109 31 109 35
0 65 -26 93 -83 15 -29 52 -88 83 -132 65 -90 77 -115 57 -115 -14 0 -96 79
-96 92 0 5 -4 8 -9 8 -4 0 -4 -20 2 -45 6 -25 7 -48 3 -52 -8 -9 -17 2 -60 74
l-29 48 -9 -27 c-8 -23 -15 -28 -44 -28 -52 0 -53 -22 -6 -114 38 -74 52 -133
36 -149 -4 -4 -24 9 -46 28 -37 34 -39 35 -68 20 -16 -8 -33 -15 -38 -15 -5 0
-24 29 -41 65 -22 46 -41 72 -65 86 -19 11 -38 32 -44 47 -5 15 -17 48 -27 75
-10 28 -23 47 -32 47 -13 0 -14 -12 -8 -80 4 -44 5 -80 1 -80 -13 0 -46 45
-46 63 0 24 -62 167 -73 167 -4 0 -5 -10 -3 -22 12 -56 17 -186 7 -192 -13 -8
-18 2 -57 108 l-33 91 6 -117 c6 -111 5 -118 -13 -118 -10 0 -27 -11 -39 -24
-11 -13 -30 -27 -42 -31 -29 -8 -30 6 -3 145 20 101 20 150 1 150 -5 0 -23
-11 -39 -25 -62 -52 -92 -21 -33 34 35 33 41 44 41 79 0 22 -5 44 -11 47 -18
12 -45 -23 -109 -141 -34 -63 -71 -125 -81 -137 -17 -20 -18 -20 -19 -4 0 11
12 52 26 92 14 41 24 80 22 87 -3 7 -22 -13 -43 -47 -95 -150 -106 -164 -139
-175 -18 -6 -48 -26 -66 -45 -59 -61 -72 -33 -16 34 34 41 38 49 50 102 3 15
34 67 69 115 36 49 77 114 92 144 33 67 53 90 76 90 10 0 24 9 32 20 24 35
106 61 132 42z m-59 -744 c-7 -38 -168 -372 -184 -382 -6 -3 -15 15 -22 44 -7
28 -16 50 -20 50 -10 0 -26 -48 -36 -105 -11 -67 -90 -192 -109 -173 -3 3 13
44 35 92 38 83 51 146 30 146 -14 0 -52 -61 -124 -198 -54 -101 -141 -220
-153 -208 -3 2 8 24 25 48 43 63 58 96 76 165 35 139 168 354 254 411 20 14
60 44 87 67 119 100 154 111 141 43z m-290 -1009 c-25 -33 -46 -65 -46 -69 0
-17 113 -130 135 -136 15 -4 52 7 103 30 44 20 87 36 96 36 27 0 18 -34 -21
-79 -42 -50 -149 -141 -165 -141 -7 0 -8 19 -3 56 l7 57 -46 -6 c-43 -6 -47
-5 -56 19 l-10 25 -31 -18 c-36 -21 -180 -170 -216 -225 -36 -54 -27 -68 41
-61 50 5 60 3 96 -22 37 -25 46 -27 110 -23 l69 5 -37 -26 c-139 -98 -172
-104 -172 -30 0 31 -28 22 -115 -37 -46 -31 -88 -55 -95 -52 -7 2 5 24 29 55
69 86 53 95 -59 30 -41 -24 -99 -58 -128 -77 -29 -18 -55 -30 -58 -27 -9 9 9
31 140 175 122 135 156 178 156 200 0 21 -15 13 -32 -16 -9 -15 -52 -54 -96
-85 -78 -56 -336 -217 -349 -217 -3 0 25 28 63 62 38 35 149 139 247 233 341
325 473 442 485 431 2 -3 -16 -33 -42 -67z"/>
<path d="M1248 6113 c-21 -24 -81 -144 -75 -150 6 -5 56 67 81 115 21 40 17
61 -6 35z"/>
<path d="M4076 7619 c-26 -39 -62 -79 -81 -90 -40 -24 -48 -51 -43 -149 l3
-65 48 0 c26 0 51 -5 55 -12 19 -30 111 -43 169 -23 39 14 59 50 83 151 24
101 26 139 5 139 -20 0 -42 -36 -56 -95 -14 -61 -35 -88 -49 -65 -5 8 -10 38
-10 65 0 78 -13 88 -56 42 -20 -21 -37 -37 -39 -35 -2 2 5 37 15 78 21 80 25
130 11 130 -4 0 -29 -32 -55 -71z"/>
<path d="M2425 5130 c-4 -6 -11 -39 -16 -73 -27 -178 -25 -205 20 -255 42 -45
92 -45 154 3 25 19 57 39 71 45 27 10 31 32 17 95 -4 17 -2 38 3 48 13 21 -1
47 -35 64 -74 37 -183 83 -194 83 -8 0 -17 -5 -20 -10z"/>
<path d="M1805 4575 c-49 -31 -78 -31 -104 -3 l-20 21 -11 -27 c-13 -34 -13
-128 0 -195 8 -41 6 -58 -7 -86 -15 -32 -15 -36 2 -61 9 -14 30 -31 46 -37 19
-8 29 -18 29 -33 0 -56 75 -70 159 -28 70 35 88 63 72 113 -13 46 -14 81 -2
81 16 0 121 102 137 132 24 46 13 61 -40 53 -57 -9 -73 -3 -142 50 -32 25 -62
45 -68 45 -6 0 -29 -12 -51 -25z"/>
<path d="M1609 4135 c-14 -22 -45 -75 -69 -117 -47 -85 -138 -209 -158 -216
-22 -7 -13 20 48 149 90 189 81 213 -23 65 -37 -52 -80 -103 -96 -112 -20 -12
-46 -48 -77 -105 -44 -83 -78 -128 -89 -117 -3 2 6 38 20 78 28 84 31 110 11
110 -19 0 -48 -48 -85 -143 -17 -42 -56 -125 -86 -184 -30 -59 -55 -117 -55
-130 0 -21 4 -23 58 -23 31 0 70 -7 86 -15 41 -22 52 -19 83 20 31 39 48 43
90 18 29 -16 31 -16 84 14 30 17 72 35 94 39 54 9 84 26 121 66 38 41 87 108
79 108 -3 0 8 26 24 58 38 76 78 173 86 214 l7 33 -29 -27 c-34 -32 -40 -34
-64 -12 -15 14 -20 13 -53 -16 -58 -52 -75 -17 -31 63 34 60 57 140 53 185
l-3 37 -26 -40z"/>
<path d="M8050 3408 c1 -359 5 -808 10 -998 5 -190 12 -565 16 -834 l7 -489
-66 7 c-37 3 -74 9 -83 13 -14 5 -15 69 -12 666 l3 659 -65 -6 c-36 -3 -171
-17 -300 -31 -129 -13 -370 -36 -535 -49 -445 -38 -402 -30 -410 -76 -9 -51
-50 -112 -103 -151 -37 -27 -42 -36 -42 -69 0 -34 5 -42 50 -74 l50 -36 98 15
c53 8 302 42 552 75 429 57 540 72 618 85 31 6 32 5 32 -28 0 -40 44 -31 -359
-77 -145 -16 -334 -41 -420 -54 -86 -14 -219 -32 -296 -41 -209 -24 -195 -19
-195 -71 0 -25 -9 -62 -19 -83 -18 -35 -75 -94 -99 -102 -6 -2 -13 -20 -17
-40 -6 -35 -4 -38 44 -73 l51 -38 73 12 c39 6 281 49 537 95 579 105 688 123
695 117 3 -3 5 -16 5 -28 0 -17 -7 -25 -22 -28 -97 -19 -1014 -181 -1165 -206
-78 -13 -88 -24 -58 -64 14 -18 19 -19 82 -7 38 6 309 57 604 111 296 55 542
100 548 100 7 0 11 -66 13 -195 2 -107 2 -195 1 -195 -12 0 -787 123 -815 130
-34 7 -38 6 -38 -11 0 -10 3 -19 8 -19 9 0 798 -129 830 -136 20 -4 22 -10 22
-64 0 -59 0 -59 33 -64 172 -28 180 -28 270 -8 49 11 90 22 92 24 1 1 0 675
-3 1496 l-5 1492 -109 0 -108 0 0 -652z"/>
<path d="M11210 3840 c0 -57 1 -60 24 -60 18 0 25 6 28 23 3 19 8 22 46 19 37
-3 46 1 75 30 l32 33 -45 7 c-25 3 -71 7 -102 7 l-58 1 0 -60z"/>
<path d="M2173 3842 c-19 -12 -43 -77 -43 -115 0 -32 -2 -33 -31 -29 -36 5
-50 -10 -42 -48 3 -17 -1 -31 -11 -39 -30 -25 -43 -6 -49 72 -6 82 -22 126
-39 109 -6 -6 -15 -56 -19 -112 -9 -98 -20 -140 -39 -140 -19 0 -25 29 -31
138 -4 81 -9 117 -20 128 -14 13 -17 12 -33 -5 -15 -16 -20 -49 -27 -183 -5
-90 -12 -174 -15 -188 l-6 -25 -19 25 c-19 24 -20 25 -34 6 -8 -11 -15 -24
-15 -29 0 -4 -10 -7 -22 -5 -22 3 -30 18 -43 81 -7 36 -20 34 -34 -4 -16 -47
-14 -92 9 -156 11 -32 20 -63 20 -70 0 -21 -38 -53 -64 -53 -13 0 -44 -16 -70
-35 -25 -20 -46 -34 -46 -32 0 2 11 37 25 77 14 40 25 77 25 82 0 19 -23 5
-91 -54 -134 -118 -149 -130 -160 -126 -6 2 18 46 54 98 58 85 107 170 107
185 0 25 -52 -15 -267 -208 -34 -30 -40 -13 -11 30 51 79 39 104 -29 59 -56
-38 -180 -164 -197 -200 -16 -36 -31 -176 -19 -192 4 -7 41 -13 80 -16 87 -4
107 -18 68 -44 -20 -13 -45 -18 -85 -17 -50 2 -66 -3 -115 -33 -32 -19 -59
-33 -61 -31 -2 1 4 29 12 61 8 32 13 60 10 63 -3 3 -47 -23 -98 -57 -51 -34
-94 -57 -96 -51 -2 5 17 48 43 95 25 46 42 87 37 90 -5 3 -62 -35 -128 -85
-123 -93 -174 -126 -174 -111 0 14 51 80 124 160 73 81 102 120 93 128 -3 4
-21 -4 -39 -17 -51 -35 -246 -201 -313 -267 -85 -82 -245 -260 -245 -272 0
-21 35 -23 99 -7 36 10 77 17 90 17 23 0 24 -2 18 -60 -6 -68 7 -79 41 -35 29
37 118 95 144 95 13 -1 34 -7 48 -14 22 -13 29 -12 65 7 22 11 60 21 85 22 25
1 78 14 118 30 66 26 74 27 89 13 22 -23 6 -64 -74 -189 -70 -108 -112 -198
-113 -236 0 -28 8 -28 40 -3 33 26 44 25 75 -6 33 -33 65 -28 136 21 59 40 59
40 85 20 37 -28 66 -18 164 61 141 112 237 156 291 134 34 -15 45 -42 58 -158
14 -116 35 -166 56 -132 14 23 36 7 61 -42 47 -94 79 -112 110 -60 48 78 62
93 92 103 17 6 32 14 32 19 0 18 33 40 59 40 40 0 60 26 95 125 7 18 8 18 19
-5 9 -17 22 -26 44 -28 23 -2 45 -17 80 -53 26 -28 60 -57 75 -65 33 -17 119
-19 136 -2 8 8 12 48 12 115 0 90 3 106 20 123 23 23 27 78 5 86 -9 4 -12 15
-9 32 7 34 -19 73 -36 56 -6 -6 -14 -31 -17 -55 -7 -56 -27 -94 -58 -115 -35
-23 -49 -9 -96 91 -35 75 -38 78 -38 44 -1 -19 -7 -44 -15 -54 -13 -18 -15
-18 -39 -2 -14 9 -41 35 -59 58 -18 23 -45 47 -60 55 -25 13 -28 12 -42 -8 -9
-12 -19 -44 -22 -70 -4 -27 -10 -51 -14 -53 -4 -3 -15 13 -24 34 -29 73 -54
64 -80 -30 -10 -33 -20 -59 -22 -56 -3 3 -12 56 -20 118 -8 63 -19 118 -24
123 -11 11 -30 -30 -56 -124 -15 -56 -19 -61 -25 -40 -4 14 -7 80 -8 147 -1
163 -5 169 -52 94 -21 -34 -41 -61 -45 -61 -3 0 -2 55 1 121 7 101 5 121 -6
117 -18 -6 -37 -44 -44 -89 -5 -35 -61 -126 -71 -116 -3 3 1 28 10 56 8 28 13
51 10 51 -3 0 -38 -29 -77 -65 -39 -36 -75 -65 -79 -65 -16 0 -7 32 26 98 18
37 37 83 40 102 l7 35 -20 -23 c-11 -13 -44 -67 -72 -120 -101 -187 -217 -338
-241 -314 -13 13 13 70 97 216 37 65 65 119 63 122 -6 6 -80 -74 -206 -224
-57 -67 -108 -122 -113 -122 -27 0 15 103 83 204 22 34 83 104 134 157 56 56
98 107 103 125 9 36 44 45 61 15 6 -12 17 -21 24 -21 23 0 338 160 379 192 21
17 52 55 69 84 16 30 34 57 40 60 5 3 35 -8 67 -25 32 -17 61 -28 64 -25 3 4
36 -10 73 -30 37 -21 73 -35 80 -32 9 3 14 21 14 49 0 24 7 67 16 96 12 43 21
55 45 64 37 14 75 88 89 172 5 32 16 66 25 74 13 13 16 11 30 -22 8 -20 15
-45 15 -55 0 -10 6 -27 14 -37 14 -19 15 -19 27 8 7 15 16 27 20 27 4 0 15
-26 24 -57 37 -132 49 -169 58 -178 5 -6 6 0 2 15 -11 45 -9 262 4 424 6 87
11 160 9 161 -2 1 -34 -1 -72 -5 -58 -7 -74 -5 -100 11 -17 10 -37 15 -43 11z"/>
<path d="M8695 2813 c4 -560 8 -1019 9 -1019 0 -1 37 5 82 13 l81 15 6 441 c4
243 7 695 7 1005 l0 562 -96 0 -97 0 8 -1017z"/>
<path d="M6478 3806 c-14 -10 -18 -28 -18 -72 0 -55 2 -60 29 -76 35 -19 59
-63 69 -121 l8 -42 144 -2 c142 -3 159 -7 160 -38 0 -7 -53 -10 -157 -7 l-158
3 -20 -33 c-11 -18 -35 -42 -52 -53 -25 -15 -32 -27 -33 -52 0 -27 5 -33 33
-42 41 -14 103 -76 118 -119 l11 -32 112 0 c78 0 118 -4 131 -13 16 -12 7 -15
-66 -20 -46 -4 -106 -7 -134 -7 l-50 0 -20 -52 c-15 -38 -32 -62 -65 -86 -35
-27 -46 -42 -48 -67 -2 -27 4 -35 35 -56 21 -13 47 -39 58 -57 l20 -33 133 5
c111 4 138 3 158 -10 13 -9 22 -20 19 -24 -3 -4 -60 -11 -127 -15 -146 -8
-158 -10 -158 -36 0 -33 -27 -74 -75 -117 -41 -36 -44 -41 -26 -47 20 -6 80
-67 98 -100 9 -16 34 -15 414 19 222 20 517 47 654 59 l250 22 3 563 2 562
-230 0 -230 0 0 -160 0 -160 185 0 185 0 0 -25 0 -25 -185 0 -185 0 0 -151 0
-152 123 7 c67 4 155 9 195 13 l72 6 0 -40 0 -40 -97 -6 c-54 -4 -142 -7 -195
-7 l-98 0 0 -150 0 -150 68 0 c37 1 99 5 137 10 39 5 94 13 123 16 l52 7 0
-41 c0 -39 -2 -41 -32 -46 -42 -6 -284 -24 -508 -36 -96 -6 -217 -15 -269 -20
-52 -6 -95 -9 -97 -8 -5 7 -24 539 -30 872 l-7 369 511 -5 512 -4 0 46 0 46
-692 17 c-381 10 -704 19 -718 22 -14 2 -33 -2 -42 -9z"/>
<path d="M8325 3689 c-4 -46 -5 -104 -3 -129 l3 -45 108 -3 c106 -3 107 -3
107 -27 0 -25 0 -25 -105 -25 l-105 0 0 -140 0 -140 115 0 c114 0 115 0 115
-24 0 -23 -3 -23 -117 -30 -65 -4 -119 -9 -121 -11 -2 -2 -1 -65 3 -141 l8
-137 123 7 124 7 0 -24 c0 -22 -5 -25 -61 -31 -34 -3 -83 -6 -110 -6 -82 0
-79 5 -79 -145 l0 -134 88 2 c48 1 95 -1 105 -5 37 -15 4 -28 -71 -28 -132 0
-122 13 -122 -172 l0 -160 68 6 c37 4 91 9 120 12 43 5 52 4 52 -10 0 -8 -10
-18 -22 -20 -21 -5 -194 -26 -210 -26 -5 0 -8 -65 -8 -145 0 -168 -16 -152
133 -131 86 12 87 12 87 -9 0 -19 -11 -23 -110 -39 l-110 -18 0 -30 c0 -20 4
-29 13 -26 6 3 71 18 143 34 l132 29 6 245 c7 298 -6 1726 -17 1736 -4 4 -67
10 -141 12 l-134 5 -7 -84z"/>
<path d="M11276 3739 c-14 -11 -26 -27 -26 -35 0 -8 -9 -14 -20 -14 -18 0 -20
-7 -20 -81 0 -70 2 -80 16 -75 9 3 22 6 30 6 8 0 14 10 14 25 0 23 2 24 44 19
41 -6 48 -4 75 24 41 41 42 83 2 123 -35 35 -77 38 -115 8z"/>
<path d="M9970 3612 l0 -121 92 -3 c62 -2 93 -7 96 -15 3 -10 -20 -13 -92 -13
l-96 0 0 -131 0 -131 97 3 c71 3 97 1 100 -8 4 -10 -14 -13 -65 -13 -38 0 -84
-3 -101 -6 l-31 -6 0 -128 0 -128 100 5 c65 4 100 2 100 -4 0 -15 -35 -23
-100 -23 -104 -1 -100 5 -100 -131 l0 -119 43 6 c23 3 215 25 426 48 315 35
384 40 388 29 3 -8 4 -16 2 -18 -2 -2 -182 -22 -399 -44 -217 -23 -410 -44
-427 -47 l-33 -5 0 -124 c0 -123 0 -125 23 -125 12 1 204 27 427 58 328 47
406 55 408 44 2 -7 2 -15 0 -17 -1 -1 -195 -29 -430 -61 l-428 -58 0 -148 c0
-81 3 -148 8 -148 4 0 213 34 465 77 l457 77 0 303 0 303 -37 0 c-21 -1 -175
-14 -343 -29 -168 -16 -308 -27 -312 -24 -5 2 -8 214 -8 470 l0 466 351 -7
351 -8 -4 23 c-2 12 -10 23 -18 24 -8 1 -150 5 -315 9 -165 3 -366 9 -447 13
l-148 6 0 -121z"/>
<path d="M6984 3413 c3 -115 9 -273 12 -352 l6 -143 187 7 c102 4 189 9 194
12 9 5 9 148 1 232 l-7 61 -163 0 c-135 0 -164 3 -164 14 0 8 -3 21 -6 30 -5
14 14 16 170 16 l176 0 -2 163 -3 162 -204 3 -203 2 6 -207z"/>
<path d="M10240 3496 l0 -127 137 3 138 3 -4 115 c-1 63 -4 116 -5 117 -1 2
-62 6 -134 9 l-132 7 0 -127z"/>
<path d="M10864 3612 c-20 -3 -21 -10 -27 -184 -4 -100 -7 -275 -7 -390 l0
-208 30 0 c17 0 33 6 36 13 3 8 1 184 -3 393 -8 377 -8 379 -29 376z"/>
<path d="M473 3575 c-22 -19 -46 -49 -53 -67 -25 -68 -37 -83 -125 -156 -232
-194 -274 -263 -160 -260 29 0 52 -6 71 -21 32 -23 10 -23 282 9 45 5 91 18
124 35 39 20 58 25 82 20 83 -19 116 -11 219 52 173 108 178 124 44 143 -37 6
-64 15 -71 26 -9 11 -19 15 -31 10 -17 -6 -17 -1 -11 61 3 38 9 82 13 98 6 27
-1 23 -78 -49 -46 -44 -106 -96 -134 -116 -116 -86 -112 -50 10 85 85 95 113
135 94 135 -26 0 -149 -82 -250 -165 -56 -47 -105 -83 -107 -80 -9 9 57 134
90 171 40 45 68 85 68 96 0 19 -40 5 -77 -27z"/>
<path d="M10550 3490 l0 -120 125 0 125 0 0 120 0 120 -125 0 -125 0 0 -120z"/>
<path d="M11262 3514 c-12 -8 -22 -22 -22 -30 0 -8 -7 -17 -15 -20 -12 -5 -15
-25 -15 -90 l0 -84 30 0 c28 0 30 3 30 36 0 34 2 36 27 31 88 -17 148 82 88
147 -28 31 -87 36 -123 10z"/>
<path d="M10638 3333 l-88 -4 0 -114 0 -115 125 0 125 0 0 120 0 120 -37 -2
c-21 -1 -77 -4 -125 -5z"/>
<path d="M2185 3308 c3 -13 22 -67 42 -121 30 -81 34 -100 22 -107 -17 -11
-50 18 -74 64 -16 31 -16 31 -11 -37 3 -38 13 -95 22 -128 28 -101 -14 -93
-57 10 -47 113 -52 105 -45 -79 l6 -165 -30 32 c-27 30 -39 63 -80 211 -17 67
-27 54 -92 -128 -9 -23 -16 -12 -74 108 -35 72 -68 132 -72 132 -5 0 -14 -18
-21 -41 -9 -31 -20 -44 -46 -55 -56 -23 -68 -99 -29 -176 8 -16 19 -28 23 -28
5 0 17 23 26 50 17 51 37 64 50 33 4 -10 13 -62 20 -116 14 -102 25 -127 57
-127 33 0 81 -26 136 -73 64 -54 88 -63 105 -36 6 10 16 19 22 19 6 0 37 -27
70 -60 33 -33 62 -60 66 -60 3 0 10 32 13 71 12 122 33 147 86 103 l30 -26 -6
34 c-4 18 -12 59 -20 91 -15 70 -11 86 27 94 16 3 26 10 23 15 -3 5 1 19 9 31
13 20 12 26 -9 57 -28 40 -31 81 -7 120 15 26 15 30 -6 63 -12 19 -28 41 -37
48 -8 7 -40 55 -70 106 -52 88 -83 120 -69 71z"/>
<path d="M10248 3250 c-1 -44 -2 -101 -3 -127 l0 -48 35 2 c19 1 81 5 138 9
l102 6 0 119 0 119 -135 0 -135 0 -2 -80z"/>
<path d="M11300 3283 c-28 -10 -49 -35 -55 -64 -4 -16 -13 -29 -21 -29 -11 0
-14 -16 -14 -71 0 -61 2 -70 16 -65 9 3 22 6 30 6 8 0 14 10 14 25 0 22 4 25
35 25 42 0 90 22 99 45 16 41 6 83 -25 109 -30 25 -49 30 -79 19z"/>
<path d="M10661 3069 c-57 -5 -105 -10 -106 -11 -1 -2 0 -59 3 -127 l5 -123
96 6 c53 4 108 9 124 12 l27 6 0 124 c0 122 0 124 -22 123 -13 -1 -70 -6 -127
-10z"/>
<path d="M10370 3050 c-63 -4 -116 -8 -117 -9 -2 0 -3 -58 -3 -128 l0 -128 97
6 c54 4 115 7 136 8 l37 1 0 130 c0 118 -2 130 -17 128 -10 -1 -70 -5 -133 -8z"/>
<path d="M11273 3045 c-12 -9 -25 -31 -29 -50 -3 -19 -10 -35 -15 -35 -5 0 -9
-34 -9 -75 0 -41 2 -75 4 -75 3 0 16 4 30 10 19 7 26 17 26 35 0 21 5 25 30
25 94 0 143 100 78 160 -26 24 -84 27 -115 5z"/>
<path d="M7156 2857 l-158 -10 6 -45 c3 -25 6 -96 6 -158 l0 -114 53 5 c28 3
114 8 190 11 l137 6 -2 157 -3 156 -35 1 c-19 1 -106 -3 -194 -9z"/>
<path d="M9493 2853 l-43 -4 0 -124 0 -125 43 5 c23 2 68 7 100 10 l57 6 0
120 0 119 -57 -2 c-32 -1 -77 -3 -100 -5z"/>
<path d="M11261 2784 c-19 -16 -31 -35 -31 -50 0 -13 -4 -24 -10 -24 -6 0 -10
-32 -10 -76 0 -65 2 -75 16 -70 9 3 22 6 30 6 8 0 14 10 14 25 0 22 4 25 34
25 72 0 123 78 92 139 -30 57 -85 67 -135 25z"/>
<path d="M9625 2584 c-11 -2 -55 -6 -97 -9 l-78 -7 0 -135 0 -136 63 7 c34 4
79 10 100 13 l37 6 0 133 c0 74 -1 133 -2 133 -2 -1 -12 -3 -23 -5z"/>
<path d="M11256 2539 c-14 -17 -26 -37 -26 -45 0 -8 -4 -14 -10 -14 -6 0 -10
-32 -10 -75 0 -41 2 -75 4 -75 24 0 56 23 56 40 0 16 7 20 30 20 93 0 144 91
85 154 -36 39 -94 37 -129 -5z"/>
<path d="M11283 2335 c-30 -13 -53 -41 -53 -64 0 -14 27 -14 106 1 49 9 64 15
64 29 0 36 -66 56 -117 34z"/>
<path d="M9523 2268 l-73 -10 0 -163 0 -163 63 13 c34 7 79 16 100 19 l37 7 0
154 0 155 -27 -1 c-16 -1 -61 -6 -100 -11z"/>
<path d="M11232 2208 c7 -20 52 -25 308 -37 135 -7 262 -14 283 -17 29 -5 37
-2 37 10 0 20 -18 22 -300 41 -288 19 -333 19 -328 3z"/>
<path d="M12202 2149 c4 -11 58 -18 224 -31 120 -9 233 -18 249 -20 22 -2 4
-10 -72 -32 -57 -16 -103 -34 -103 -40 1 -35 16 -35 158 1 142 35 142 36 142
64 0 26 -3 29 -32 29 -47 0 -452 29 -517 36 -43 5 -53 4 -49 -7z"/>
<path d="M12360 1995 c-41 -13 -101 -31 -132 -40 -44 -12 -58 -21 -58 -35 0
-10 3 -21 8 -23 4 -2 70 12 147 32 135 35 140 37 143 64 4 34 -6 34 -108 2z"/>
<path d="M11220 1970 c0 -6 6 -12 13 -15 6 -2 168 -11 359 -20 241 -11 353
-13 365 -6 15 9 13 10 -12 11 -16 0 -160 9 -320 20 -332 23 -405 24 -405 10z"/>
<path d="M10026 1940 c12 -12 742 -65 753 -55 16 17 -45 24 -309 39 -162 9
-331 19 -375 23 -63 4 -78 3 -69 -7z"/>
<path d="M11961 1886 c-96 -25 -126 -36 -132 -51 -13 -34 -10 -37 31 -30 l40
7 0 -55 c0 -53 1 -56 29 -62 59 -13 91 -76 91 -181 l0 -76 -31 6 c-17 3 -40 6
-50 6 -17 0 -19 9 -19 85 0 52 -4 85 -10 85 -7 0 -10 -33 -8 -92 l3 -93 56 -9
c50 -8 65 -6 120 16 l64 26 7 53 c3 30 6 129 7 221 1 145 -1 167 -14 162 -8
-4 -15 -1 -15 5 0 17 -33 12 -169 -23z"/>
<path d="M12222 1880 c-18 -4 -34 -9 -36 -11 -2 -2 -6 -57 -9 -122 l-5 -117
51 6 c90 11 159 32 186 57 18 17 42 26 80 30 70 8 161 65 161 101 0 22 -5 23
-82 30 -46 3 -108 13 -138 21 -58 16 -153 18 -208 5z"/>
<path d="M11630 1800 c-140 -35 -145 -37 -142 -61 2 -13 5 -25 7 -27 3 -4 275
65 281 71 3 3 4 16 2 29 l-3 24 -145 -36z"/>
<path d="M9090 1786 c11 -10 79 -19 238 -32 208 -16 224 -16 240 -1 15 16 15
17 -8 17 -14 0 -115 7 -225 15 -257 19 -264 19 -245 1z"/>
<path d="M11530 1693 c-184 -52 -338 -97 -342 -101 -4 -4 -4 -78 -1 -165 l6
-158 45 7 c25 4 87 29 139 55 51 27 104 49 117 49 31 0 116 38 122 55 7 17 57
35 98 35 37 0 112 33 144 62 20 20 22 30 22 140 0 65 -3 118 -7 117 -5 -1
-159 -44 -343 -96z"/>
<path d="M11283 1711 c-141 -35 -143 -36 -143 -63 0 -21 -5 -28 -20 -28 -13 0
-20 7 -20 20 0 17 -4 19 -27 13 -16 -3 -84 -21 -153 -38 l-125 -31 -3 -33 c-3
-32 -2 -33 26 -26 l30 6 7 -58 c4 -32 9 -66 11 -76 7 -23 62 -64 110 -80 l39
-14 3 -96 3 -97 -25 0 c-43 0 -104 29 -110 53 -3 12 -6 48 -6 80 0 44 -3 57
-15 57 -12 0 -15 -18 -15 -100 l0 -99 33 -5 c17 -3 56 -10 86 -15 47 -8 63 -5
122 17 l69 25 0 244 c0 243 0 243 23 252 12 5 72 21 132 36 61 16 114 32 119
36 4 4 4 18 0 31 l-9 24 -142 -35z"/>
<path d="M10040 1722 c0 -12 43 -19 170 -27 52 -3 222 -14 377 -25 181 -13
290 -16 305 -10 16 6 18 9 6 9 -46 2 -742 52 -795 57 -41 5 -63 3 -63 -4z"/>
<path d="M8500 1650 c-14 -4 -20 -8 -15 -9 176 -19 905 -91 918 -91 9 0 17 7
17 15 0 8 -7 15 -15 15 -8 0 -198 18 -422 40 -428 42 -443 43 -483 30z"/>
<path d="M10585 1525 c-66 -17 -132 -35 -147 -39 -24 -5 -28 -11 -28 -42 0
-25 4 -35 13 -31 6 2 81 22 164 43 l153 39 0 33 c0 39 2 39 -155 -3z"/>
<path d="M8480 1508 c11 -11 188 -33 660 -82 355 -36 657 -66 672 -66 15 0 30
5 33 10 3 6 0 10 -8 10 -16 0 -1240 126 -1322 136 -44 5 -48 4 -35 -8z"/>
<path d="M10399 1375 c-224 -62 -411 -115 -415 -118 -8 -4 3 -407 11 -415 7
-7 175 84 175 95 0 19 39 35 66 29 16 -4 46 5 94 29 38 19 104 43 145 52 67
14 81 21 109 55 32 36 36 38 75 32 31 -5 53 -1 90 15 27 11 59 21 70 21 20 0
21 5 21 160 0 146 -2 160 -17 159 -10 -1 -201 -52 -424 -114z"/>
<path d="M10240 1439 c-234 -66 -210 -55 -210 -94 0 -21 5 -35 12 -35 7 0 81
19 165 41 l153 42 0 38 c0 22 -3 39 -7 38 -5 0 -55 -14 -113 -30z"/>
<path d="M7262 1432 c-7 -5 84 -22 220 -42 128 -18 240 -35 248 -38 12 -4 11
-1 -2 13 -13 14 -62 25 -205 47 -200 29 -240 33 -261 20z"/>
<path d="M8330 1397 c0 -15 -27 -11 739 -101 296 -34 364 -40 368 -29 3 8 4
16 2 18 -3 2 -236 29 -519 59 -283 31 -532 59 -552 62 -29 4 -38 2 -38 -9z"/>
<path d="M9840 1330 c-74 -20 -147 -40 -162 -43 -21 -6 -27 -14 -30 -40 -4
-39 -32 -44 -36 -7 l-3 26 -169 -46 -170 -45 0 -42 0 -41 88 24 c48 13 126 35
175 48 l87 24 0 -78 0 -78 51 -32 c27 -18 62 -48 77 -68 25 -33 26 -38 23
-151 -1 -64 -4 -117 -6 -119 -1 -2 -18 3 -37 11 -55 23 -74 56 -81 138 -3 40
-11 77 -17 83 -7 7 -10 -30 -10 -120 l0 -130 75 -24 74 -23 95 43 95 42 -6
298 -6 298 21 7 c22 6 28 34 14 65 -6 14 -25 11 -142 -20z"/>
<path d="M8340 1279 c0 -4 5 -11 12 -15 21 -13 713 -102 722 -93 5 5 8 10 5
12 -2 2 -96 16 -209 31 -113 15 -278 38 -367 50 -90 12 -163 19 -163 15z"/>
<path d="M6655 1270 c-11 -5 -18 -9 -15 -9 3 -1 259 -46 569 -101 311 -55 566
-98 568 -97 1 2 -3 11 -10 21 -11 15 -108 34 -506 102 -552 94 -578 97 -606
84z"/>
<path d="M9047 1115 c-87 -23 -161 -45 -163 -48 -3 -3 -4 -23 -2 -44 l3 -40
165 47 165 47 3 41 c2 23 0 42 -5 41 -4 0 -79 -20 -166 -44z"/>
<path d="M9415 1110 c-93 -26 -366 -103 -605 -170 -239 -67 -450 -127 -467
-132 l-33 -9 0 -197 c0 -108 -3 -214 -6 -235 l-7 -37 108 0 108 0 108 65 c70
42 118 65 138 65 50 0 163 51 180 82 13 23 23 27 71 30 30 2 125 23 210 47
122 34 159 48 173 67 13 16 29 24 50 24 49 1 141 60 148 96 9 42 10 354 2 353
-5 0 -84 -22 -178 -49z"/>
<path d="M8337 1125 c-4 -8 -3 -16 1 -18 4 -3 95 -17 202 -32 107 -15 202 -29
210 -32 8 -3 -32 -17 -90 -33 -58 -15 -121 -32 -140 -37 -29 -8 -35 -14 -38
-39 -5 -64 -12 -64 296 22 l53 15 -3 47 -3 46 -220 38 c-253 42 -261 43 -268
23z"/>
</g>
</svg>
